%TF.GenerationSoftware,KiCad,Pcbnew,(6.0.9)*%
%TF.CreationDate,2022-11-27T02:07:55-08:00*%
%TF.ProjectId,40s-2040rmie,3430732d-3230-4343-9072-6d69652e6b69,rev?*%
%TF.SameCoordinates,Original*%
%TF.FileFunction,Soldermask,Top*%
%TF.FilePolarity,Negative*%
%FSLAX46Y46*%
G04 Gerber Fmt 4.6, Leading zero omitted, Abs format (unit mm)*
G04 Created by KiCad (PCBNEW (6.0.9)) date 2022-11-27 02:07:55*
%MOMM*%
%LPD*%
G01*
G04 APERTURE LIST*
%ADD10C,3.987800*%
%ADD11C,1.750000*%
%ADD12C,3.048000*%
%ADD13C,0.650000*%
%ADD14O,1.000000X1.600000*%
%ADD15O,1.000000X2.100000*%
G04 APERTURE END LIST*
D10*
%TO.C,MX4-9_1*%
X245262500Y-126200000D03*
D11*
X250342500Y-126200000D03*
X240182500Y-126200000D03*
%TD*%
D10*
%TO.C,MX4-7_2*%
X173825000Y-126200000D03*
D11*
X168745000Y-126200000D03*
X178905000Y-126200000D03*
%TD*%
%TO.C,MX3-2*%
X97307500Y-107150000D03*
D10*
X102387500Y-107150000D03*
D11*
X107467500Y-107150000D03*
%TD*%
%TO.C,MX3-14*%
X326542500Y-107150000D03*
X316382500Y-107150000D03*
D10*
X321462500Y-107150000D03*
%TD*%
%TO.C,ST-2_0*%
X211925000Y-117945000D03*
D12*
X211925000Y-133185000D03*
X116675000Y-133185000D03*
D10*
X116675000Y-117945000D03*
%TD*%
D11*
%TO.C,MX0-9*%
X226530000Y-45237500D03*
D10*
X221450000Y-45237500D03*
D11*
X216370000Y-45237500D03*
%TD*%
D10*
%TO.C,MX4-0_1*%
X54762500Y-126200000D03*
D11*
X59842500Y-126200000D03*
X49682500Y-126200000D03*
%TD*%
D10*
%TO.C,MX4-0_2*%
X52381250Y-126200000D03*
D11*
X57461250Y-126200000D03*
X47301250Y-126200000D03*
%TD*%
%TO.C,MX2-10*%
X250342500Y-88100000D03*
D10*
X245262500Y-88100000D03*
D11*
X240182500Y-88100000D03*
%TD*%
%TO.C,MX4-7_4*%
X186048750Y-126200000D03*
D10*
X180968750Y-126200000D03*
D11*
X175888750Y-126200000D03*
%TD*%
%TO.C,MX1-7*%
X188430000Y-69050000D03*
X178270000Y-69050000D03*
D10*
X183350000Y-69050000D03*
%TD*%
D11*
%TO.C,MX0-15*%
X345592500Y-45237500D03*
D10*
X340512500Y-45237500D03*
D11*
X335432500Y-45237500D03*
%TD*%
%TO.C,MX4-4_4*%
X152711250Y-126200000D03*
D10*
X147631250Y-126200000D03*
D11*
X142551250Y-126200000D03*
%TD*%
D10*
%TO.C,MX0-2*%
X88100000Y-50000000D03*
D11*
X83020000Y-50000000D03*
X93180000Y-50000000D03*
%TD*%
%TO.C,MX1-B12*%
X263995000Y-69050000D03*
X274155000Y-69050000D03*
D10*
X269075000Y-69050000D03*
%TD*%
D11*
%TO.C,MX0-14*%
X316382500Y-45237500D03*
D10*
X321462500Y-45237500D03*
D11*
X326542500Y-45237500D03*
%TD*%
D10*
%TO.C,MX0-3*%
X107150000Y-50000000D03*
D11*
X112230000Y-50000000D03*
X102070000Y-50000000D03*
%TD*%
D10*
%TO.C,MX0-10*%
X240500000Y-45237500D03*
D11*
X245580000Y-45237500D03*
X235420000Y-45237500D03*
%TD*%
%TO.C,MX4-10_0*%
X254470000Y-126200000D03*
X264630000Y-126200000D03*
D10*
X259550000Y-126200000D03*
%TD*%
D11*
%TO.C,MX1-15*%
X335432500Y-64287500D03*
D10*
X340512500Y-64287500D03*
D11*
X345592500Y-64287500D03*
%TD*%
%TO.C,MX3-3*%
X116357500Y-107150000D03*
X126517500Y-107150000D03*
D10*
X121437500Y-107150000D03*
%TD*%
D12*
%TO.C,ST-3_0*%
X154775000Y-133185000D03*
D10*
X116675000Y-117945000D03*
X154775000Y-117945000D03*
D12*
X116675000Y-133185000D03*
%TD*%
D10*
%TO.C,MX1-8*%
X202400000Y-69050000D03*
D11*
X207480000Y-69050000D03*
X197320000Y-69050000D03*
%TD*%
D10*
%TO.C,ST-A_0*%
X257168750Y-60795000D03*
X280981250Y-60795000D03*
D12*
X257168750Y-76035000D03*
X280981250Y-76035000D03*
%TD*%
D11*
%TO.C,MX1-14*%
X316382500Y-64287500D03*
X326542500Y-64287500D03*
D10*
X321462500Y-64287500D03*
%TD*%
D11*
%TO.C,MX1-6*%
X159220000Y-69050000D03*
D10*
X164300000Y-69050000D03*
D11*
X169380000Y-69050000D03*
%TD*%
D10*
%TO.C,MX4-1_2*%
X73812500Y-126200000D03*
D11*
X68732500Y-126200000D03*
X78892500Y-126200000D03*
%TD*%
D10*
%TO.C,ST-3_1*%
X211925000Y-117945000D03*
X173825000Y-117945000D03*
D12*
X173825000Y-133185000D03*
X211925000Y-133185000D03*
%TD*%
D11*
%TO.C,MX4-4_0*%
X169380000Y-126200000D03*
D10*
X164300000Y-126200000D03*
D11*
X159220000Y-126200000D03*
%TD*%
%TO.C,MX2-11*%
X266376250Y-88100000D03*
D10*
X271456250Y-88100000D03*
D11*
X276536250Y-88100000D03*
%TD*%
%TO.C,MX3-10*%
X249707500Y-107150000D03*
D10*
X254787500Y-107150000D03*
D11*
X259867500Y-107150000D03*
%TD*%
D10*
%TO.C,MX2-1*%
X73812500Y-88100000D03*
D11*
X78892500Y-88100000D03*
X68732500Y-88100000D03*
%TD*%
D10*
%TO.C,MX1-4*%
X126200000Y-69050000D03*
D11*
X131280000Y-69050000D03*
X121120000Y-69050000D03*
%TD*%
D12*
%TO.C,ST-0_0*%
X221450000Y-133185000D03*
X107150000Y-133185000D03*
D10*
X221450000Y-117945000D03*
X107150000Y-117945000D03*
%TD*%
D11*
%TO.C,MX4-3_4*%
X113976250Y-126200000D03*
D10*
X119056250Y-126200000D03*
D11*
X124136250Y-126200000D03*
%TD*%
%TO.C,MX3-9*%
X240817500Y-107150000D03*
X230657500Y-107150000D03*
D10*
X235737500Y-107150000D03*
%TD*%
%TO.C,MX4-2_2*%
X95243750Y-126200000D03*
D11*
X100323750Y-126200000D03*
X90163750Y-126200000D03*
%TD*%
%TO.C,MX1-13*%
X307492500Y-64287500D03*
D10*
X302412500Y-64287500D03*
D11*
X297332500Y-64287500D03*
%TD*%
%TO.C,MX3-11*%
X281298750Y-107150000D03*
D10*
X276218750Y-107150000D03*
D11*
X271138750Y-107150000D03*
%TD*%
D10*
%TO.C,MX2-8*%
X207162500Y-88100000D03*
D11*
X202082500Y-88100000D03*
X212242500Y-88100000D03*
%TD*%
%TO.C,MX2-5*%
X144932500Y-88100000D03*
X155092500Y-88100000D03*
D10*
X150012500Y-88100000D03*
%TD*%
D11*
%TO.C,MX2-3*%
X106832500Y-88100000D03*
X116992500Y-88100000D03*
D10*
X111912500Y-88100000D03*
%TD*%
D11*
%TO.C,MX3-8*%
X221767500Y-107150000D03*
D10*
X216687500Y-107150000D03*
D11*
X211607500Y-107150000D03*
%TD*%
%TO.C,MX1-11*%
X264630000Y-69050000D03*
D10*
X259550000Y-69050000D03*
D11*
X254470000Y-69050000D03*
%TD*%
%TO.C,MX4-14*%
X326542500Y-126200000D03*
D10*
X321462500Y-126200000D03*
D11*
X316382500Y-126200000D03*
%TD*%
%TO.C,MX1-1*%
X63970000Y-69050000D03*
D10*
X69050000Y-69050000D03*
D11*
X74130000Y-69050000D03*
%TD*%
%TO.C,MX3-4*%
X145567500Y-107150000D03*
D10*
X140487500Y-107150000D03*
D11*
X135407500Y-107150000D03*
%TD*%
%TO.C,MX3-5*%
X164617500Y-107150000D03*
D10*
X159537500Y-107150000D03*
D11*
X154457500Y-107150000D03*
%TD*%
D10*
%TO.C,MX0-13*%
X302412500Y-45237500D03*
D11*
X307492500Y-45237500D03*
X297332500Y-45237500D03*
%TD*%
D10*
%TO.C,MX4-9_2*%
X233356250Y-126200000D03*
D11*
X228276250Y-126200000D03*
X238436250Y-126200000D03*
%TD*%
%TO.C,MX4-4_3*%
X130645000Y-126200000D03*
D10*
X135725000Y-126200000D03*
D11*
X140805000Y-126200000D03*
%TD*%
%TO.C,MX1-A12*%
X283680000Y-69050000D03*
X273520000Y-69050000D03*
D10*
X278600000Y-69050000D03*
%TD*%
%TO.C,ST-1_0*%
X97625000Y-117945000D03*
D12*
X230975000Y-133185000D03*
X97625000Y-133185000D03*
D10*
X230975000Y-117945000D03*
%TD*%
D11*
%TO.C,MX1-2*%
X83020000Y-69050000D03*
D10*
X88100000Y-69050000D03*
D11*
X93180000Y-69050000D03*
%TD*%
D10*
%TO.C,MX1-10*%
X240500000Y-69050000D03*
D11*
X235420000Y-69050000D03*
X245580000Y-69050000D03*
%TD*%
D10*
%TO.C,MX4-2_0*%
X88100000Y-126200000D03*
D11*
X83020000Y-126200000D03*
X93180000Y-126200000D03*
%TD*%
%TO.C,MX1-3*%
X102070000Y-69050000D03*
D10*
X107150000Y-69050000D03*
D11*
X112230000Y-69050000D03*
%TD*%
%TO.C,MX4-13*%
X297332500Y-126200000D03*
D10*
X302412500Y-126200000D03*
D11*
X307492500Y-126200000D03*
%TD*%
%TO.C,MX1-5*%
X140170000Y-69050000D03*
D10*
X145250000Y-69050000D03*
D11*
X150330000Y-69050000D03*
%TD*%
%TO.C,MX2-6*%
X163982500Y-88100000D03*
D10*
X169062500Y-88100000D03*
D11*
X174142500Y-88100000D03*
%TD*%
%TO.C,MX4-11_2*%
X271138750Y-126200000D03*
X281298750Y-126200000D03*
D10*
X276218750Y-126200000D03*
%TD*%
D11*
%TO.C,MX4-8_4*%
X214623750Y-126200000D03*
D10*
X209543750Y-126200000D03*
D11*
X204463750Y-126200000D03*
%TD*%
%TO.C,MX2-7*%
X193192500Y-88100000D03*
D10*
X188112500Y-88100000D03*
D11*
X183032500Y-88100000D03*
%TD*%
%TO.C,MX2-9*%
X231292500Y-88100000D03*
D10*
X226212500Y-88100000D03*
D11*
X221132500Y-88100000D03*
%TD*%
D10*
%TO.C,MX4-11_0*%
X278600000Y-126200000D03*
D11*
X283680000Y-126200000D03*
X273520000Y-126200000D03*
%TD*%
%TO.C,MX4-1_0*%
X63970000Y-126200000D03*
X74130000Y-126200000D03*
D10*
X69050000Y-126200000D03*
%TD*%
D11*
%TO.C,MX4-10_2*%
X249707500Y-126200000D03*
D10*
X254787500Y-126200000D03*
D11*
X259867500Y-126200000D03*
%TD*%
D10*
%TO.C,MX0-5*%
X145250000Y-50000000D03*
D11*
X150330000Y-50000000D03*
X140170000Y-50000000D03*
%TD*%
D10*
%TO.C,MX4-2_1*%
X83337500Y-126200000D03*
D11*
X78257500Y-126200000D03*
X88417500Y-126200000D03*
%TD*%
%TO.C,MX4-11_1*%
X268757500Y-126200000D03*
D10*
X273837500Y-126200000D03*
D11*
X278917500Y-126200000D03*
%TD*%
%TO.C,MX0-1*%
X74130000Y-50000000D03*
D10*
X69050000Y-50000000D03*
D11*
X63970000Y-50000000D03*
%TD*%
%TO.C,MX3-1*%
X88417500Y-107150000D03*
X78257500Y-107150000D03*
D10*
X83337500Y-107150000D03*
%TD*%
D11*
%TO.C,MX3-7*%
X202717500Y-107150000D03*
D10*
X197637500Y-107150000D03*
D11*
X192557500Y-107150000D03*
%TD*%
%TO.C,MX0-6*%
X159220000Y-50000000D03*
X169380000Y-50000000D03*
D10*
X164300000Y-50000000D03*
%TD*%
%TO.C,MX4-9_0*%
X240500000Y-126200000D03*
D11*
X245580000Y-126200000D03*
X235420000Y-126200000D03*
%TD*%
D10*
%TO.C,MX4-0_0*%
X50000000Y-126200000D03*
D11*
X44920000Y-126200000D03*
X55080000Y-126200000D03*
%TD*%
%TO.C,MX2-2*%
X87782500Y-88100000D03*
D10*
X92862500Y-88100000D03*
D11*
X97942500Y-88100000D03*
%TD*%
D10*
%TO.C,MX0-12*%
X278600000Y-45237500D03*
D11*
X273520000Y-45237500D03*
X283680000Y-45237500D03*
%TD*%
%TO.C,MX1-9*%
X226530000Y-69050000D03*
D10*
X221450000Y-69050000D03*
D11*
X216370000Y-69050000D03*
%TD*%
%TO.C,MX2-4*%
X136042500Y-88100000D03*
X125882500Y-88100000D03*
D10*
X130962500Y-88100000D03*
%TD*%
D11*
%TO.C,MX4-15*%
X345592500Y-126200000D03*
D10*
X340512500Y-126200000D03*
D11*
X335432500Y-126200000D03*
%TD*%
%TO.C,MX1-0*%
X44920000Y-69050000D03*
D10*
X50000000Y-69050000D03*
D11*
X55080000Y-69050000D03*
%TD*%
D10*
%TO.C,MX2-0*%
X52381250Y-88100000D03*
D11*
X47301250Y-88100000D03*
X57461250Y-88100000D03*
%TD*%
%TO.C,MX3-0*%
X62223750Y-107150000D03*
D10*
X57143750Y-107150000D03*
D11*
X52063750Y-107150000D03*
%TD*%
%TO.C,MX3-6*%
X173507500Y-107150000D03*
X183667500Y-107150000D03*
D10*
X178587500Y-107150000D03*
%TD*%
D11*
%TO.C,MX4-7_3*%
X197955000Y-126200000D03*
X187795000Y-126200000D03*
D10*
X192875000Y-126200000D03*
%TD*%
%TO.C,MX0-0*%
X50000000Y-50000000D03*
D11*
X55080000Y-50000000D03*
X44920000Y-50000000D03*
%TD*%
%TO.C,MX0-11*%
X264630000Y-45237500D03*
X254470000Y-45237500D03*
D10*
X259550000Y-45237500D03*
%TD*%
%TO.C,MX0-4*%
X126200000Y-50000000D03*
D11*
X121120000Y-50000000D03*
X131280000Y-50000000D03*
%TD*%
D13*
%TO.C,USB1*%
X198138750Y-34612500D03*
X192358750Y-34612500D03*
D14*
X199568750Y-30962500D03*
D15*
X199568750Y-35142500D03*
X190928750Y-35142500D03*
D14*
X190928750Y-30962500D03*
%TD*%
M02*
