M48
; DRILL file {KiCad (6.0.9)} date Sun Nov 27 02:07:57 2022
; FORMAT={-:-/ absolute / metric / decimal}
; #@! TF.CreationDate,2022-11-27T02:07:57-08:00
; #@! TF.GenerationSoftware,Kicad,Pcbnew,(6.0.9)
; #@! TF.FileFunction,Plated,1,2,PTH
FMAT,2
METRIC
; #@! TA.AperFunction,Plated,PTH,ComponentDrill
T1C0.350
; #@! TA.AperFunction,Plated,PTH,ViaDrill
T2C0.400
; #@! TA.AperFunction,Plated,PTH,ComponentDrill
T3C0.600
; #@! TA.AperFunction,Plated,PTH,ComponentDrill
T4C1.000
; #@! TA.AperFunction,Plated,PTH,ComponentDrill
T5C1.524
%
G90
G05
T1
X301.137Y-91.587
X301.137Y-92.862
X301.137Y-94.138
X302.412Y-91.587
X302.412Y-92.862
X302.412Y-94.138
X303.688Y-91.587
X303.688Y-92.862
X303.688Y-94.138
T2
X188.679Y-32.407
X188.679Y-33.417
X188.679Y-34.438
X188.679Y-42.987
X188.679Y-45.237
X188.679Y-47.487
X188.679Y-48.487
X188.679Y-49.487
X190.929Y-37.044
X192.799Y-41.107
X193.749Y-38.045
X193.749Y-45.237
X193.749Y-50.487
X195.249Y-38.045
X196.749Y-38.045
X196.749Y-45.237
X196.749Y-50.487
X197.699Y-41.107
X199.569Y-37.044
X201.819Y-32.438
X201.819Y-33.417
X201.819Y-34.438
X201.819Y-42.987
X201.819Y-45.237
X201.819Y-47.487
X201.819Y-48.487
X201.819Y-49.487
X279.319Y-108.8
X281.7Y-70.7
X287.227Y-71.675
X287.227Y-73.675
X292.024Y-71.675
X292.024Y-73.675
X294.363Y-86.425
X294.363Y-87.425
X294.363Y-88.425
X294.363Y-89.425
X294.363Y-93.862
X294.842Y-103.867
X295.842Y-103.867
X296.842Y-103.867
X297.322Y-89.425
X298.912Y-83.817
X299.19Y-103.867
X299.912Y-83.817
X300.912Y-81.432
X301.012Y-97.4
X301.912Y-81.432
X302.912Y-81.432
X303.912Y-81.432
X304.662Y-103.867
X304.912Y-83.817
X305.512Y-65.938
X305.912Y-83.817
X307.502Y-89.425
X310.462Y-89.425
X310.462Y-93.862
X321.462Y-74.644
X321.462Y-78.506
X321.462Y-79.466
X324.562Y-108.8
T4
X314.462Y-52.262
X314.462Y-57.262
X328.962Y-52.262
X328.962Y-54.762
X328.962Y-57.262
X338.012Y-38.237
X338.012Y-52.737
X340.512Y-52.737
X343.012Y-38.237
X343.012Y-52.737
T5
X46.19Y-47.46
X46.19Y-66.51
X46.19Y-123.66
X48.571Y-85.56
X48.571Y-123.66
X50.953Y-123.66
X52.54Y-44.92
X52.54Y-63.97
X52.54Y-121.12
X53.334Y-104.61
X54.921Y-83.02
X54.921Y-121.12
X57.302Y-121.12
X59.684Y-102.07
X65.24Y-47.46
X65.24Y-66.51
X65.24Y-123.66
X70.002Y-85.56
X70.002Y-123.66
X71.59Y-44.92
X71.59Y-63.97
X71.59Y-121.12
X76.352Y-83.02
X76.352Y-121.12
X79.528Y-104.61
X79.528Y-123.66
X84.29Y-47.46
X84.29Y-66.51
X84.29Y-123.66
X85.877Y-102.07
X85.877Y-121.12
X89.052Y-85.56
X90.64Y-44.92
X90.64Y-63.97
X90.64Y-121.12
X91.434Y-123.66
X95.402Y-83.02
X97.784Y-121.12
X98.578Y-104.61
X103.34Y-47.46
X103.34Y-66.51
X104.927Y-102.07
X108.102Y-85.56
X109.69Y-44.92
X109.69Y-63.97
X114.453Y-83.02
X115.246Y-123.66
X117.627Y-104.61
X121.596Y-121.12
X122.39Y-47.46
X122.39Y-66.51
X123.977Y-102.07
X127.152Y-85.56
X128.74Y-44.92
X128.74Y-63.97
X131.915Y-123.66
X133.502Y-83.02
X136.677Y-104.61
X138.265Y-121.12
X141.44Y-47.46
X141.44Y-66.51
X143.028Y-102.07
X143.821Y-123.66
X146.202Y-85.56
X147.79Y-44.92
X147.79Y-63.97
X150.171Y-121.12
X152.552Y-83.02
X155.727Y-104.61
X160.49Y-47.46
X160.49Y-66.51
X160.49Y-123.66
X162.077Y-102.07
X165.252Y-85.56
X166.84Y-44.92
X166.84Y-63.97
X166.84Y-121.12
X170.015Y-123.66
X171.602Y-83.02
X174.778Y-104.61
X176.365Y-121.12
X177.159Y-123.66
X179.54Y-66.51
X181.127Y-102.07
X183.509Y-121.12
X184.302Y-85.56
X185.89Y-63.97
X189.065Y-123.66
X190.653Y-83.02
X193.827Y-104.61
X195.415Y-121.12
X198.59Y-66.51
X200.177Y-102.07
X203.352Y-85.56
X204.94Y-63.97
X205.734Y-123.66
X209.702Y-83.02
X212.084Y-121.12
X212.877Y-104.61
X217.64Y-42.697
X217.64Y-66.51
X219.227Y-102.07
X222.403Y-85.56
X223.99Y-40.157
X223.99Y-63.97
X228.752Y-83.02
X229.546Y-123.66
X231.927Y-104.61
X235.896Y-121.12
X236.69Y-42.697
X236.69Y-66.51
X236.69Y-123.66
X238.278Y-102.07
X241.452Y-85.56
X241.452Y-123.66
X243.04Y-40.157
X243.04Y-63.97
X243.04Y-121.12
X247.802Y-83.02
X247.802Y-121.12
X250.977Y-104.61
X250.977Y-123.66
X255.74Y-42.697
X255.74Y-66.51
X255.74Y-123.66
X257.327Y-102.07
X257.327Y-121.12
X262.09Y-40.157
X262.09Y-63.97
X262.09Y-121.12
X265.265Y-66.51
X267.646Y-85.56
X270.027Y-123.66
X271.615Y-63.97
X272.409Y-104.61
X272.409Y-123.66
X273.996Y-83.02
X274.79Y-42.697
X274.79Y-66.51
X274.79Y-123.66
X276.377Y-121.12
X278.759Y-102.07
X278.759Y-121.12
X281.14Y-40.157
X281.14Y-63.97
X281.14Y-121.12
X298.602Y-42.697
X298.602Y-61.747
X298.602Y-123.66
X304.952Y-40.157
X304.952Y-59.207
X304.952Y-121.12
X317.652Y-42.697
X317.652Y-61.747
X317.652Y-104.61
X317.652Y-123.66
X324.002Y-40.157
X324.002Y-59.207
X324.002Y-102.07
X324.002Y-121.12
X336.702Y-42.697
X336.702Y-61.747
X336.702Y-123.66
X343.053Y-40.157
X343.053Y-59.207
X343.053Y-121.12
T3
G00X190.929Y-30.662
M15
G01X190.929Y-31.262
M16
G05
G00X190.929Y-34.593
M15
G01X190.929Y-35.692
M16
G05
G00X199.569Y-30.662
M15
G01X199.569Y-31.262
M16
G05
G00X199.569Y-34.593
M15
G01X199.569Y-35.692
M16
G05
T0
M30
