%TF.GenerationSoftware,KiCad,Pcbnew,(6.0.9)*%
%TF.CreationDate,2022-11-27T16:26:35-08:00*%
%TF.ProjectId,40s-2040rmie,3430732d-3230-4343-9072-6d69652e6b69,rev?*%
%TF.SameCoordinates,Original*%
%TF.FileFunction,Legend,Top*%
%TF.FilePolarity,Positive*%
%FSLAX46Y46*%
G04 Gerber Fmt 4.6, Leading zero omitted, Abs format (unit mm)*
G04 Created by KiCad (PCBNEW (6.0.9)) date 2022-11-27 16:26:35*
%MOMM*%
%LPD*%
G01*
G04 APERTURE LIST*
%ADD10C,0.200000*%
%ADD11C,3.987800*%
%ADD12C,1.750000*%
%ADD13C,3.048000*%
%ADD14C,0.650000*%
%ADD15O,1.000000X1.600000*%
%ADD16O,1.000000X2.100000*%
G04 APERTURE END LIST*
D10*
X268075000Y-73050000D02*
X270075000Y-73050000D01*
X173039285Y-114397380D02*
X173658333Y-114397380D01*
X173325000Y-114778333D01*
X173467857Y-114778333D01*
X173563095Y-114825952D01*
X173610714Y-114873571D01*
X173658333Y-114968809D01*
X173658333Y-115206904D01*
X173610714Y-115302142D01*
X173563095Y-115349761D01*
X173467857Y-115397380D01*
X173182142Y-115397380D01*
X173086904Y-115349761D01*
X173039285Y-115302142D01*
X174515476Y-114730714D02*
X174515476Y-115397380D01*
X174086904Y-114730714D02*
X174086904Y-115254523D01*
X174134523Y-115349761D01*
X174229761Y-115397380D01*
X174372619Y-115397380D01*
X174467857Y-115349761D01*
X174515476Y-115302142D01*
X338846398Y-49131830D02*
X338572589Y-48655640D01*
X338274970Y-49131830D02*
X338399970Y-48131830D01*
X338780922Y-48131830D01*
X338870208Y-48179450D01*
X338911875Y-48227069D01*
X338947589Y-48322307D01*
X338929732Y-48465164D01*
X338870208Y-48560402D01*
X338816636Y-48608021D01*
X338715446Y-48655640D01*
X338334494Y-48655640D01*
X339417827Y-49131830D02*
X339328541Y-49084211D01*
X339286875Y-49036592D01*
X339251160Y-48941354D01*
X339286875Y-48655640D01*
X339346398Y-48560402D01*
X339399970Y-48512783D01*
X339501160Y-48465164D01*
X339644017Y-48465164D01*
X339733303Y-48512783D01*
X339774970Y-48560402D01*
X339810684Y-48655640D01*
X339774970Y-48941354D01*
X339715446Y-49036592D01*
X339661875Y-49084211D01*
X339560684Y-49131830D01*
X339417827Y-49131830D01*
X340120208Y-48465164D02*
X340501160Y-48465164D01*
X340304732Y-48131830D02*
X340197589Y-48988973D01*
X340233303Y-49084211D01*
X340322589Y-49131830D01*
X340417827Y-49131830D01*
X341179732Y-49131830D02*
X341245208Y-48608021D01*
X341209494Y-48512783D01*
X341120208Y-48465164D01*
X340929732Y-48465164D01*
X340828541Y-48512783D01*
X341185684Y-49084211D02*
X341084494Y-49131830D01*
X340846398Y-49131830D01*
X340757113Y-49084211D01*
X340721398Y-48988973D01*
X340733303Y-48893735D01*
X340792827Y-48798497D01*
X340894017Y-48750878D01*
X341132113Y-48750878D01*
X341233303Y-48703259D01*
X341655922Y-49131830D02*
X341739255Y-48465164D01*
X341715446Y-48655640D02*
X341774970Y-48560402D01*
X341828541Y-48512783D01*
X341929732Y-48465164D01*
X342024970Y-48465164D01*
X342263065Y-48465164D02*
X342417827Y-49131830D01*
X342739255Y-48465164D02*
X342417827Y-49131830D01*
X342292827Y-49369926D01*
X342239255Y-49417545D01*
X342138065Y-49465164D01*
X337745208Y-50218021D02*
X338078541Y-50218021D01*
X338155922Y-50741830D02*
X337679732Y-50741830D01*
X337804732Y-49741830D01*
X338280922Y-49741830D01*
X338667827Y-50075164D02*
X338584494Y-50741830D01*
X338655922Y-50170402D02*
X338709494Y-50122783D01*
X338810684Y-50075164D01*
X338953541Y-50075164D01*
X339042827Y-50122783D01*
X339078541Y-50218021D01*
X339013065Y-50741830D01*
X339923779Y-50694211D02*
X339822589Y-50741830D01*
X339632113Y-50741830D01*
X339542827Y-50694211D01*
X339501160Y-50646592D01*
X339465446Y-50551354D01*
X339501160Y-50265640D01*
X339560684Y-50170402D01*
X339614255Y-50122783D01*
X339715446Y-50075164D01*
X339905922Y-50075164D01*
X339995208Y-50122783D01*
X340489255Y-50741830D02*
X340399970Y-50694211D01*
X340358303Y-50646592D01*
X340322589Y-50551354D01*
X340358303Y-50265640D01*
X340417827Y-50170402D01*
X340471398Y-50122783D01*
X340572589Y-50075164D01*
X340715446Y-50075164D01*
X340804732Y-50122783D01*
X340846398Y-50170402D01*
X340882113Y-50265640D01*
X340846398Y-50551354D01*
X340786875Y-50646592D01*
X340733303Y-50694211D01*
X340632113Y-50741830D01*
X340489255Y-50741830D01*
X341679732Y-50741830D02*
X341804732Y-49741830D01*
X341685684Y-50694211D02*
X341584494Y-50741830D01*
X341394017Y-50741830D01*
X341304732Y-50694211D01*
X341263065Y-50646592D01*
X341227351Y-50551354D01*
X341263065Y-50265640D01*
X341322589Y-50170402D01*
X341376160Y-50122783D01*
X341477351Y-50075164D01*
X341667827Y-50075164D01*
X341757113Y-50122783D01*
X342542827Y-50694211D02*
X342441636Y-50741830D01*
X342251160Y-50741830D01*
X342161875Y-50694211D01*
X342126160Y-50598973D01*
X342173779Y-50218021D01*
X342233303Y-50122783D01*
X342334494Y-50075164D01*
X342524970Y-50075164D01*
X342614255Y-50122783D01*
X342649970Y-50218021D01*
X342638065Y-50313259D01*
X342149970Y-50408497D01*
X343013065Y-50741830D02*
X343096398Y-50075164D01*
X343072589Y-50265640D02*
X343132113Y-50170402D01*
X343185684Y-50122783D01*
X343286875Y-50075164D01*
X343382113Y-50075164D01*
X147869345Y-128652380D02*
X147393154Y-128652380D01*
X147345535Y-129128571D01*
X147393154Y-129080952D01*
X147488392Y-129033333D01*
X147726488Y-129033333D01*
X147821726Y-129080952D01*
X147869345Y-129128571D01*
X147916964Y-129223809D01*
X147916964Y-129461904D01*
X147869345Y-129557142D01*
X147821726Y-129604761D01*
X147726488Y-129652380D01*
X147488392Y-129652380D01*
X147393154Y-129604761D01*
X147345535Y-129557142D01*
X94910416Y-128652380D02*
X95529464Y-128652380D01*
X95196130Y-129033333D01*
X95338988Y-129033333D01*
X95434226Y-129080952D01*
X95481845Y-129128571D01*
X95529464Y-129223809D01*
X95529464Y-129461904D01*
X95481845Y-129557142D01*
X95434226Y-129604761D01*
X95338988Y-129652380D01*
X95053273Y-129652380D01*
X94958035Y-129604761D01*
X94910416Y-129557142D01*
X83623214Y-129652380D02*
X83051785Y-129652380D01*
X83337500Y-129652380D02*
X83337500Y-128652380D01*
X83242261Y-128795238D01*
X83147023Y-128890476D01*
X83051785Y-128938095D01*
X164585714Y-131152380D02*
X164014285Y-131152380D01*
X164300000Y-131152380D02*
X164300000Y-130152380D01*
X164204761Y-130295238D01*
X164109523Y-130390476D01*
X164014285Y-130438095D01*
X96982142Y-115397380D02*
X96410714Y-115397380D01*
X96696428Y-115397380D02*
X96696428Y-114397380D01*
X96601190Y-114540238D01*
X96505952Y-114635476D01*
X96410714Y-114683095D01*
X97601190Y-114397380D02*
X97696428Y-114397380D01*
X97791666Y-114445000D01*
X97839285Y-114492619D01*
X97886904Y-114587857D01*
X97934523Y-114778333D01*
X97934523Y-115016428D01*
X97886904Y-115206904D01*
X97839285Y-115302142D01*
X97791666Y-115349761D01*
X97696428Y-115397380D01*
X97601190Y-115397380D01*
X97505952Y-115349761D01*
X97458333Y-115302142D01*
X97410714Y-115206904D01*
X97363095Y-115016428D01*
X97363095Y-114778333D01*
X97410714Y-114587857D01*
X97458333Y-114492619D01*
X97505952Y-114445000D01*
X97601190Y-114397380D01*
X98791666Y-114730714D02*
X98791666Y-115397380D01*
X98363095Y-114730714D02*
X98363095Y-115254523D01*
X98410714Y-115349761D01*
X98505952Y-115397380D01*
X98648809Y-115397380D01*
X98744047Y-115349761D01*
X98791666Y-115302142D01*
X230332142Y-115397380D02*
X229760714Y-115397380D01*
X230046428Y-115397380D02*
X230046428Y-114397380D01*
X229951190Y-114540238D01*
X229855952Y-114635476D01*
X229760714Y-114683095D01*
X230951190Y-114397380D02*
X231046428Y-114397380D01*
X231141666Y-114445000D01*
X231189285Y-114492619D01*
X231236904Y-114587857D01*
X231284523Y-114778333D01*
X231284523Y-115016428D01*
X231236904Y-115206904D01*
X231189285Y-115302142D01*
X231141666Y-115349761D01*
X231046428Y-115397380D01*
X230951190Y-115397380D01*
X230855952Y-115349761D01*
X230808333Y-115302142D01*
X230760714Y-115206904D01*
X230713095Y-115016428D01*
X230713095Y-114778333D01*
X230760714Y-114587857D01*
X230808333Y-114492619D01*
X230855952Y-114445000D01*
X230951190Y-114397380D01*
X232141666Y-114730714D02*
X232141666Y-115397380D01*
X231713095Y-114730714D02*
X231713095Y-115254523D01*
X231760714Y-115349761D01*
X231855952Y-115397380D01*
X231998809Y-115397380D01*
X232094047Y-115349761D01*
X232141666Y-115302142D01*
X259383333Y-72502380D02*
X258811904Y-72502380D01*
X259097619Y-72502380D02*
X259097619Y-71502380D01*
X259002380Y-71645238D01*
X258907142Y-71740476D01*
X258811904Y-71788095D01*
X260240476Y-71835714D02*
X260240476Y-72502380D01*
X259811904Y-71835714D02*
X259811904Y-72359523D01*
X259859523Y-72454761D01*
X259954761Y-72502380D01*
X260097619Y-72502380D01*
X260192857Y-72454761D01*
X260240476Y-72407142D01*
X273551785Y-130247619D02*
X273599404Y-130200000D01*
X273694642Y-130152380D01*
X273932738Y-130152380D01*
X274027976Y-130200000D01*
X274075595Y-130247619D01*
X274123214Y-130342857D01*
X274123214Y-130438095D01*
X274075595Y-130580952D01*
X273504166Y-131152380D01*
X274123214Y-131152380D01*
X49833333Y-72502380D02*
X49261904Y-72502380D01*
X49547619Y-72502380D02*
X49547619Y-71502380D01*
X49452380Y-71645238D01*
X49357142Y-71740476D01*
X49261904Y-71788095D01*
X50690476Y-71835714D02*
X50690476Y-72502380D01*
X50261904Y-71835714D02*
X50261904Y-72359523D01*
X50309523Y-72454761D01*
X50404761Y-72502380D01*
X50547619Y-72502380D01*
X50642857Y-72454761D01*
X50690476Y-72407142D01*
X135915476Y-128985714D02*
X135915476Y-129652380D01*
X135677380Y-128604761D02*
X135439285Y-129319047D01*
X136058333Y-129319047D01*
X274861607Y-110602380D02*
X274290178Y-110602380D01*
X274575892Y-110602380D02*
X274575892Y-109602380D01*
X274480654Y-109745238D01*
X274385416Y-109840476D01*
X274290178Y-109888095D01*
X275290178Y-110507142D02*
X275337797Y-110554761D01*
X275290178Y-110602380D01*
X275242559Y-110554761D01*
X275290178Y-110507142D01*
X275290178Y-110602380D01*
X275718750Y-109697619D02*
X275766369Y-109650000D01*
X275861607Y-109602380D01*
X276099702Y-109602380D01*
X276194940Y-109650000D01*
X276242559Y-109697619D01*
X276290178Y-109792857D01*
X276290178Y-109888095D01*
X276242559Y-110030952D01*
X275671130Y-110602380D01*
X276290178Y-110602380D01*
X277194940Y-109602380D02*
X276718750Y-109602380D01*
X276671130Y-110078571D01*
X276718750Y-110030952D01*
X276813988Y-109983333D01*
X277052083Y-109983333D01*
X277147321Y-110030952D01*
X277194940Y-110078571D01*
X277242559Y-110173809D01*
X277242559Y-110411904D01*
X277194940Y-110507142D01*
X277147321Y-110554761D01*
X277052083Y-110602380D01*
X276813988Y-110602380D01*
X276718750Y-110554761D01*
X276671130Y-110507142D01*
X278099702Y-109935714D02*
X278099702Y-110602380D01*
X277671130Y-109935714D02*
X277671130Y-110459523D01*
X277718750Y-110554761D01*
X277813988Y-110602380D01*
X277956845Y-110602380D01*
X278052083Y-110554761D01*
X278099702Y-110507142D01*
X193065476Y-128985714D02*
X193065476Y-129652380D01*
X192827380Y-128604761D02*
X192589285Y-129319047D01*
X193208333Y-129319047D01*
X181206845Y-128652380D02*
X180730654Y-128652380D01*
X180683035Y-129128571D01*
X180730654Y-129080952D01*
X180825892Y-129033333D01*
X181063988Y-129033333D01*
X181159226Y-129080952D01*
X181206845Y-129128571D01*
X181254464Y-129223809D01*
X181254464Y-129461904D01*
X181206845Y-129557142D01*
X181159226Y-129604761D01*
X181063988Y-129652380D01*
X180825892Y-129652380D01*
X180730654Y-129604761D01*
X180683035Y-129557142D01*
X88052380Y-128652380D02*
X88147619Y-128652380D01*
X88242857Y-128700000D01*
X88290476Y-128747619D01*
X88338095Y-128842857D01*
X88385714Y-129033333D01*
X88385714Y-129271428D01*
X88338095Y-129461904D01*
X88290476Y-129557142D01*
X88242857Y-129604761D01*
X88147619Y-129652380D01*
X88052380Y-129652380D01*
X87957142Y-129604761D01*
X87909523Y-129557142D01*
X87861904Y-129461904D01*
X87814285Y-129271428D01*
X87814285Y-129033333D01*
X87861904Y-128842857D01*
X87909523Y-128747619D01*
X87957142Y-128700000D01*
X88052380Y-128652380D01*
X220664285Y-114397380D02*
X221330952Y-114397380D01*
X220902380Y-115397380D01*
X222140476Y-114730714D02*
X222140476Y-115397380D01*
X221711904Y-114730714D02*
X221711904Y-115254523D01*
X221759523Y-115349761D01*
X221854761Y-115397380D01*
X221997619Y-115397380D01*
X222092857Y-115349761D01*
X222140476Y-115302142D01*
X233022916Y-128652380D02*
X233641964Y-128652380D01*
X233308630Y-129033333D01*
X233451488Y-129033333D01*
X233546726Y-129080952D01*
X233594345Y-129128571D01*
X233641964Y-129223809D01*
X233641964Y-129461904D01*
X233594345Y-129557142D01*
X233546726Y-129604761D01*
X233451488Y-129652380D01*
X233165773Y-129652380D01*
X233070535Y-129604761D01*
X233022916Y-129557142D01*
X164014285Y-131747619D02*
X164061904Y-131700000D01*
X164157142Y-131652380D01*
X164395238Y-131652380D01*
X164490476Y-131700000D01*
X164538095Y-131747619D01*
X164585714Y-131842857D01*
X164585714Y-131938095D01*
X164538095Y-132080952D01*
X163966666Y-132652380D01*
X164585714Y-132652380D01*
X51024107Y-91552380D02*
X50452678Y-91552380D01*
X50738392Y-91552380D02*
X50738392Y-90552380D01*
X50643154Y-90695238D01*
X50547916Y-90790476D01*
X50452678Y-90838095D01*
X51452678Y-91457142D02*
X51500297Y-91504761D01*
X51452678Y-91552380D01*
X51405059Y-91504761D01*
X51452678Y-91457142D01*
X51452678Y-91552380D01*
X51881250Y-90647619D02*
X51928869Y-90600000D01*
X52024107Y-90552380D01*
X52262202Y-90552380D01*
X52357440Y-90600000D01*
X52405059Y-90647619D01*
X52452678Y-90742857D01*
X52452678Y-90838095D01*
X52405059Y-90980952D01*
X51833630Y-91552380D01*
X52452678Y-91552380D01*
X53357440Y-90552380D02*
X52881250Y-90552380D01*
X52833630Y-91028571D01*
X52881250Y-90980952D01*
X52976488Y-90933333D01*
X53214583Y-90933333D01*
X53309821Y-90980952D01*
X53357440Y-91028571D01*
X53405059Y-91123809D01*
X53405059Y-91361904D01*
X53357440Y-91457142D01*
X53309821Y-91504761D01*
X53214583Y-91552380D01*
X52976488Y-91552380D01*
X52881250Y-91504761D01*
X52833630Y-91457142D01*
X54262202Y-90885714D02*
X54262202Y-91552380D01*
X53833630Y-90885714D02*
X53833630Y-91409523D01*
X53881250Y-91504761D01*
X53976488Y-91552380D01*
X54119345Y-91552380D01*
X54214583Y-91504761D01*
X54262202Y-91457142D01*
X114960714Y-114397380D02*
X114770238Y-114397380D01*
X114675000Y-114445000D01*
X114627380Y-114492619D01*
X114532142Y-114635476D01*
X114484523Y-114825952D01*
X114484523Y-115206904D01*
X114532142Y-115302142D01*
X114579761Y-115349761D01*
X114675000Y-115397380D01*
X114865476Y-115397380D01*
X114960714Y-115349761D01*
X115008333Y-115302142D01*
X115055952Y-115206904D01*
X115055952Y-114968809D01*
X115008333Y-114873571D01*
X114960714Y-114825952D01*
X114865476Y-114778333D01*
X114675000Y-114778333D01*
X114579761Y-114825952D01*
X114532142Y-114873571D01*
X114484523Y-114968809D01*
X115913095Y-114730714D02*
X115913095Y-115397380D01*
X115484523Y-114730714D02*
X115484523Y-115254523D01*
X115532142Y-115349761D01*
X115627380Y-115397380D01*
X115770238Y-115397380D01*
X115865476Y-115349761D01*
X115913095Y-115302142D01*
X117103571Y-114349761D02*
X116246428Y-115635476D01*
X117341666Y-114397380D02*
X117960714Y-114397380D01*
X117627380Y-114778333D01*
X117770238Y-114778333D01*
X117865476Y-114825952D01*
X117913095Y-114873571D01*
X117960714Y-114968809D01*
X117960714Y-115206904D01*
X117913095Y-115302142D01*
X117865476Y-115349761D01*
X117770238Y-115397380D01*
X117484523Y-115397380D01*
X117389285Y-115349761D01*
X117341666Y-115302142D01*
X118817857Y-114730714D02*
X118817857Y-115397380D01*
X118389285Y-114730714D02*
X118389285Y-115254523D01*
X118436904Y-115349761D01*
X118532142Y-115397380D01*
X118675000Y-115397380D01*
X118770238Y-115349761D01*
X118817857Y-115302142D01*
X209781845Y-128652380D02*
X209305654Y-128652380D01*
X209258035Y-129128571D01*
X209305654Y-129080952D01*
X209400892Y-129033333D01*
X209638988Y-129033333D01*
X209734226Y-129080952D01*
X209781845Y-129128571D01*
X209829464Y-129223809D01*
X209829464Y-129461904D01*
X209781845Y-129557142D01*
X209734226Y-129604761D01*
X209638988Y-129652380D01*
X209400892Y-129652380D01*
X209305654Y-129604761D01*
X209258035Y-129557142D01*
X268336904Y-71597619D02*
X268384523Y-71550000D01*
X268479761Y-71502380D01*
X268717857Y-71502380D01*
X268813095Y-71550000D01*
X268860714Y-71597619D01*
X268908333Y-71692857D01*
X268908333Y-71788095D01*
X268860714Y-71930952D01*
X268289285Y-72502380D01*
X268908333Y-72502380D01*
X269765476Y-71835714D02*
X269765476Y-72502380D01*
X269336904Y-71835714D02*
X269336904Y-72359523D01*
X269384523Y-72454761D01*
X269479761Y-72502380D01*
X269622619Y-72502380D01*
X269717857Y-72454761D01*
X269765476Y-72407142D01*
X55048214Y-129652380D02*
X54476785Y-129652380D01*
X54762500Y-129652380D02*
X54762500Y-128652380D01*
X54667261Y-128795238D01*
X54572023Y-128890476D01*
X54476785Y-128938095D01*
X49952380Y-128652380D02*
X50047619Y-128652380D01*
X50142857Y-128700000D01*
X50190476Y-128747619D01*
X50238095Y-128842857D01*
X50285714Y-129033333D01*
X50285714Y-129271428D01*
X50238095Y-129461904D01*
X50190476Y-129557142D01*
X50142857Y-129604761D01*
X50047619Y-129652380D01*
X49952380Y-129652380D01*
X49857142Y-129604761D01*
X49809523Y-129557142D01*
X49761904Y-129461904D01*
X49714285Y-129271428D01*
X49714285Y-129033333D01*
X49761904Y-128842857D01*
X49809523Y-128747619D01*
X49857142Y-128700000D01*
X49952380Y-128652380D01*
X69002380Y-128652380D02*
X69097619Y-128652380D01*
X69192857Y-128700000D01*
X69240476Y-128747619D01*
X69288095Y-128842857D01*
X69335714Y-129033333D01*
X69335714Y-129271428D01*
X69288095Y-129461904D01*
X69240476Y-129557142D01*
X69192857Y-129604761D01*
X69097619Y-129652380D01*
X69002380Y-129652380D01*
X68907142Y-129604761D01*
X68859523Y-129557142D01*
X68811904Y-129461904D01*
X68764285Y-129271428D01*
X68764285Y-129033333D01*
X68811904Y-128842857D01*
X68859523Y-128747619D01*
X68907142Y-128700000D01*
X69002380Y-128652380D01*
X55786607Y-110602380D02*
X55215178Y-110602380D01*
X55500892Y-110602380D02*
X55500892Y-109602380D01*
X55405654Y-109745238D01*
X55310416Y-109840476D01*
X55215178Y-109888095D01*
X56215178Y-110507142D02*
X56262797Y-110554761D01*
X56215178Y-110602380D01*
X56167559Y-110554761D01*
X56215178Y-110507142D01*
X56215178Y-110602380D01*
X56596130Y-109602380D02*
X57262797Y-109602380D01*
X56834226Y-110602380D01*
X58119940Y-109602380D02*
X57643750Y-109602380D01*
X57596130Y-110078571D01*
X57643750Y-110030952D01*
X57738988Y-109983333D01*
X57977083Y-109983333D01*
X58072321Y-110030952D01*
X58119940Y-110078571D01*
X58167559Y-110173809D01*
X58167559Y-110411904D01*
X58119940Y-110507142D01*
X58072321Y-110554761D01*
X57977083Y-110602380D01*
X57738988Y-110602380D01*
X57643750Y-110554761D01*
X57596130Y-110507142D01*
X59024702Y-109935714D02*
X59024702Y-110602380D01*
X58596130Y-109935714D02*
X58596130Y-110459523D01*
X58643750Y-110554761D01*
X58738988Y-110602380D01*
X58881845Y-110602380D01*
X58977083Y-110554761D01*
X59024702Y-110507142D01*
X49523809Y-53357142D02*
X49571428Y-53404761D01*
X49523809Y-53452380D01*
X49476190Y-53404761D01*
X49523809Y-53357142D01*
X49523809Y-53452380D01*
X50000000Y-53357142D02*
X50047619Y-53404761D01*
X50000000Y-53452380D01*
X49952380Y-53404761D01*
X50000000Y-53357142D01*
X50000000Y-53452380D01*
X50476190Y-53357142D02*
X50523809Y-53404761D01*
X50476190Y-53452380D01*
X50428571Y-53404761D01*
X50476190Y-53357142D01*
X50476190Y-53452380D01*
X245548214Y-129652380D02*
X244976785Y-129652380D01*
X245262500Y-129652380D02*
X245262500Y-128652380D01*
X245167261Y-128795238D01*
X245072023Y-128890476D01*
X244976785Y-128938095D01*
X73479166Y-128652380D02*
X74098214Y-128652380D01*
X73764880Y-129033333D01*
X73907738Y-129033333D01*
X74002976Y-129080952D01*
X74050595Y-129128571D01*
X74098214Y-129223809D01*
X74098214Y-129461904D01*
X74050595Y-129557142D01*
X74002976Y-129604761D01*
X73907738Y-129652380D01*
X73622023Y-129652380D01*
X73526785Y-129604761D01*
X73479166Y-129557142D01*
X254454166Y-128652380D02*
X255073214Y-128652380D01*
X254739880Y-129033333D01*
X254882738Y-129033333D01*
X254977976Y-129080952D01*
X255025595Y-129128571D01*
X255073214Y-129223809D01*
X255073214Y-129461904D01*
X255025595Y-129557142D01*
X254977976Y-129604761D01*
X254882738Y-129652380D01*
X254597023Y-129652380D01*
X254501785Y-129604761D01*
X254454166Y-129557142D01*
X54476785Y-130247619D02*
X54524404Y-130200000D01*
X54619642Y-130152380D01*
X54857738Y-130152380D01*
X54952976Y-130200000D01*
X55000595Y-130247619D01*
X55048214Y-130342857D01*
X55048214Y-130438095D01*
X55000595Y-130580952D01*
X54429166Y-131152380D01*
X55048214Y-131152380D01*
X153989285Y-114397380D02*
X154608333Y-114397380D01*
X154275000Y-114778333D01*
X154417857Y-114778333D01*
X154513095Y-114825952D01*
X154560714Y-114873571D01*
X154608333Y-114968809D01*
X154608333Y-115206904D01*
X154560714Y-115302142D01*
X154513095Y-115349761D01*
X154417857Y-115397380D01*
X154132142Y-115397380D01*
X154036904Y-115349761D01*
X153989285Y-115302142D01*
X155465476Y-114730714D02*
X155465476Y-115397380D01*
X155036904Y-114730714D02*
X155036904Y-115254523D01*
X155084523Y-115349761D01*
X155179761Y-115397380D01*
X155322619Y-115397380D01*
X155417857Y-115349761D01*
X155465476Y-115302142D01*
X278433333Y-72502380D02*
X277861904Y-72502380D01*
X278147619Y-72502380D02*
X278147619Y-71502380D01*
X278052380Y-71645238D01*
X277957142Y-71740476D01*
X277861904Y-71788095D01*
X279290476Y-71835714D02*
X279290476Y-72502380D01*
X278861904Y-71835714D02*
X278861904Y-72359523D01*
X278909523Y-72454761D01*
X279004761Y-72502380D01*
X279147619Y-72502380D01*
X279242857Y-72454761D01*
X279290476Y-72407142D01*
X173491666Y-128652380D02*
X174110714Y-128652380D01*
X173777380Y-129033333D01*
X173920238Y-129033333D01*
X174015476Y-129080952D01*
X174063095Y-129128571D01*
X174110714Y-129223809D01*
X174110714Y-129461904D01*
X174063095Y-129557142D01*
X174015476Y-129604761D01*
X173920238Y-129652380D01*
X173634523Y-129652380D01*
X173539285Y-129604761D01*
X173491666Y-129557142D01*
X52047916Y-128652380D02*
X52666964Y-128652380D01*
X52333630Y-129033333D01*
X52476488Y-129033333D01*
X52571726Y-129080952D01*
X52619345Y-129128571D01*
X52666964Y-129223809D01*
X52666964Y-129461904D01*
X52619345Y-129557142D01*
X52571726Y-129604761D01*
X52476488Y-129652380D01*
X52190773Y-129652380D01*
X52095535Y-129604761D01*
X52047916Y-129557142D01*
X119294345Y-128652380D02*
X118818154Y-128652380D01*
X118770535Y-129128571D01*
X118818154Y-129080952D01*
X118913392Y-129033333D01*
X119151488Y-129033333D01*
X119246726Y-129080952D01*
X119294345Y-129128571D01*
X119341964Y-129223809D01*
X119341964Y-129461904D01*
X119294345Y-129557142D01*
X119246726Y-129604761D01*
X119151488Y-129652380D01*
X118913392Y-129652380D01*
X118818154Y-129604761D01*
X118770535Y-129557142D01*
X270099107Y-91552380D02*
X269527678Y-91552380D01*
X269813392Y-91552380D02*
X269813392Y-90552380D01*
X269718154Y-90695238D01*
X269622916Y-90790476D01*
X269527678Y-90838095D01*
X270527678Y-91457142D02*
X270575297Y-91504761D01*
X270527678Y-91552380D01*
X270480059Y-91504761D01*
X270527678Y-91457142D01*
X270527678Y-91552380D01*
X270908630Y-90552380D02*
X271575297Y-90552380D01*
X271146726Y-91552380D01*
X272432440Y-90552380D02*
X271956250Y-90552380D01*
X271908630Y-91028571D01*
X271956250Y-90980952D01*
X272051488Y-90933333D01*
X272289583Y-90933333D01*
X272384821Y-90980952D01*
X272432440Y-91028571D01*
X272480059Y-91123809D01*
X272480059Y-91361904D01*
X272432440Y-91457142D01*
X272384821Y-91504761D01*
X272289583Y-91552380D01*
X272051488Y-91552380D01*
X271956250Y-91504761D01*
X271908630Y-91457142D01*
X273337202Y-90885714D02*
X273337202Y-91552380D01*
X272908630Y-90885714D02*
X272908630Y-91409523D01*
X272956250Y-91504761D01*
X273051488Y-91552380D01*
X273194345Y-91552380D01*
X273289583Y-91504761D01*
X273337202Y-91457142D01*
X210210714Y-114397380D02*
X210020238Y-114397380D01*
X209925000Y-114445000D01*
X209877380Y-114492619D01*
X209782142Y-114635476D01*
X209734523Y-114825952D01*
X209734523Y-115206904D01*
X209782142Y-115302142D01*
X209829761Y-115349761D01*
X209925000Y-115397380D01*
X210115476Y-115397380D01*
X210210714Y-115349761D01*
X210258333Y-115302142D01*
X210305952Y-115206904D01*
X210305952Y-114968809D01*
X210258333Y-114873571D01*
X210210714Y-114825952D01*
X210115476Y-114778333D01*
X209925000Y-114778333D01*
X209829761Y-114825952D01*
X209782142Y-114873571D01*
X209734523Y-114968809D01*
X211163095Y-114730714D02*
X211163095Y-115397380D01*
X210734523Y-114730714D02*
X210734523Y-115254523D01*
X210782142Y-115349761D01*
X210877380Y-115397380D01*
X211020238Y-115397380D01*
X211115476Y-115349761D01*
X211163095Y-115302142D01*
X212353571Y-114349761D02*
X211496428Y-115635476D01*
X212591666Y-114397380D02*
X213210714Y-114397380D01*
X212877380Y-114778333D01*
X213020238Y-114778333D01*
X213115476Y-114825952D01*
X213163095Y-114873571D01*
X213210714Y-114968809D01*
X213210714Y-115206904D01*
X213163095Y-115302142D01*
X213115476Y-115349761D01*
X213020238Y-115397380D01*
X212734523Y-115397380D01*
X212639285Y-115349761D01*
X212591666Y-115302142D01*
X214067857Y-114730714D02*
X214067857Y-115397380D01*
X213639285Y-114730714D02*
X213639285Y-115254523D01*
X213686904Y-115349761D01*
X213782142Y-115397380D01*
X213925000Y-115397380D01*
X214020238Y-115349761D01*
X214067857Y-115302142D01*
X275885416Y-128652380D02*
X276504464Y-128652380D01*
X276171130Y-129033333D01*
X276313988Y-129033333D01*
X276409226Y-129080952D01*
X276456845Y-129128571D01*
X276504464Y-129223809D01*
X276504464Y-129461904D01*
X276456845Y-129557142D01*
X276409226Y-129604761D01*
X276313988Y-129652380D01*
X276028273Y-129652380D01*
X275933035Y-129604761D01*
X275885416Y-129557142D01*
X163966666Y-133152380D02*
X164585714Y-133152380D01*
X164252380Y-133533333D01*
X164395238Y-133533333D01*
X164490476Y-133580952D01*
X164538095Y-133628571D01*
X164585714Y-133723809D01*
X164585714Y-133961904D01*
X164538095Y-134057142D01*
X164490476Y-134104761D01*
X164395238Y-134152380D01*
X164109523Y-134152380D01*
X164014285Y-134104761D01*
X163966666Y-134057142D01*
X240452380Y-128652380D02*
X240547619Y-128652380D01*
X240642857Y-128700000D01*
X240690476Y-128747619D01*
X240738095Y-128842857D01*
X240785714Y-129033333D01*
X240785714Y-129271428D01*
X240738095Y-129461904D01*
X240690476Y-129557142D01*
X240642857Y-129604761D01*
X240547619Y-129652380D01*
X240452380Y-129652380D01*
X240357142Y-129604761D01*
X240309523Y-129557142D01*
X240261904Y-129461904D01*
X240214285Y-129271428D01*
X240214285Y-129033333D01*
X240261904Y-128842857D01*
X240309523Y-128747619D01*
X240357142Y-128700000D01*
X240452380Y-128652380D01*
X259502380Y-128652380D02*
X259597619Y-128652380D01*
X259692857Y-128700000D01*
X259740476Y-128747619D01*
X259788095Y-128842857D01*
X259835714Y-129033333D01*
X259835714Y-129271428D01*
X259788095Y-129461904D01*
X259740476Y-129557142D01*
X259692857Y-129604761D01*
X259597619Y-129652380D01*
X259502380Y-129652380D01*
X259407142Y-129604761D01*
X259359523Y-129557142D01*
X259311904Y-129461904D01*
X259264285Y-129271428D01*
X259264285Y-129033333D01*
X259311904Y-128842857D01*
X259359523Y-128747619D01*
X259407142Y-128700000D01*
X259502380Y-128652380D01*
X274123214Y-129652380D02*
X273551785Y-129652380D01*
X273837500Y-129652380D02*
X273837500Y-128652380D01*
X273742261Y-128795238D01*
X273647023Y-128890476D01*
X273551785Y-128938095D01*
X164252380Y-128652380D02*
X164347619Y-128652380D01*
X164442857Y-128700000D01*
X164490476Y-128747619D01*
X164538095Y-128842857D01*
X164585714Y-129033333D01*
X164585714Y-129271428D01*
X164538095Y-129461904D01*
X164490476Y-129557142D01*
X164442857Y-129604761D01*
X164347619Y-129652380D01*
X164252380Y-129652380D01*
X164157142Y-129604761D01*
X164109523Y-129557142D01*
X164061904Y-129461904D01*
X164014285Y-129271428D01*
X164014285Y-129033333D01*
X164061904Y-128842857D01*
X164109523Y-128747619D01*
X164157142Y-128700000D01*
X164252380Y-128652380D01*
X278552380Y-128652380D02*
X278647619Y-128652380D01*
X278742857Y-128700000D01*
X278790476Y-128747619D01*
X278838095Y-128842857D01*
X278885714Y-129033333D01*
X278885714Y-129271428D01*
X278838095Y-129461904D01*
X278790476Y-129557142D01*
X278742857Y-129604761D01*
X278647619Y-129652380D01*
X278552380Y-129652380D01*
X278457142Y-129604761D01*
X278409523Y-129557142D01*
X278361904Y-129461904D01*
X278314285Y-129271428D01*
X278314285Y-129033333D01*
X278361904Y-128842857D01*
X278409523Y-128747619D01*
X278457142Y-128700000D01*
X278552380Y-128652380D01*
X106364285Y-114397380D02*
X107030952Y-114397380D01*
X106602380Y-115397380D01*
X107840476Y-114730714D02*
X107840476Y-115397380D01*
X107411904Y-114730714D02*
X107411904Y-115254523D01*
X107459523Y-115349761D01*
X107554761Y-115397380D01*
X107697619Y-115397380D01*
X107792857Y-115349761D01*
X107840476Y-115302142D01*
%LPC*%
D11*
%TO.C,MX4-9_1*%
X245262500Y-126200000D03*
D12*
X250342500Y-126200000D03*
X240182500Y-126200000D03*
%TD*%
D11*
%TO.C,MX4-7_2*%
X173825000Y-126200000D03*
D12*
X168745000Y-126200000D03*
X178905000Y-126200000D03*
%TD*%
%TO.C,MX3-2*%
X97307500Y-107150000D03*
D11*
X102387500Y-107150000D03*
D12*
X107467500Y-107150000D03*
%TD*%
%TO.C,MX3-14*%
X326542500Y-107150000D03*
X316382500Y-107150000D03*
D11*
X321462500Y-107150000D03*
%TD*%
%TO.C,ST-2_0*%
X211925000Y-117945000D03*
D13*
X211925000Y-133185000D03*
X116675000Y-133185000D03*
D11*
X116675000Y-117945000D03*
%TD*%
D12*
%TO.C,MX0-9*%
X226530000Y-45237500D03*
D11*
X221450000Y-45237500D03*
D12*
X216370000Y-45237500D03*
%TD*%
D11*
%TO.C,MX4-0_1*%
X54762500Y-126200000D03*
D12*
X59842500Y-126200000D03*
X49682500Y-126200000D03*
%TD*%
D11*
%TO.C,MX4-0_2*%
X52381250Y-126200000D03*
D12*
X57461250Y-126200000D03*
X47301250Y-126200000D03*
%TD*%
%TO.C,MX2-10*%
X250342500Y-88100000D03*
D11*
X245262500Y-88100000D03*
D12*
X240182500Y-88100000D03*
%TD*%
%TO.C,MX4-7_4*%
X186048750Y-126200000D03*
D11*
X180968750Y-126200000D03*
D12*
X175888750Y-126200000D03*
%TD*%
%TO.C,MX1-7*%
X188430000Y-69050000D03*
X178270000Y-69050000D03*
D11*
X183350000Y-69050000D03*
%TD*%
D12*
%TO.C,MX0-15*%
X345592500Y-45237500D03*
D11*
X340512500Y-45237500D03*
D12*
X335432500Y-45237500D03*
%TD*%
%TO.C,MX4-4_4*%
X152711250Y-126200000D03*
D11*
X147631250Y-126200000D03*
D12*
X142551250Y-126200000D03*
%TD*%
D11*
%TO.C,MX0-2*%
X88100000Y-50000000D03*
D12*
X83020000Y-50000000D03*
X93180000Y-50000000D03*
%TD*%
%TO.C,MX1-B12*%
X263995000Y-69050000D03*
X274155000Y-69050000D03*
D11*
X269075000Y-69050000D03*
%TD*%
D12*
%TO.C,MX0-14*%
X316382500Y-45237500D03*
D11*
X321462500Y-45237500D03*
D12*
X326542500Y-45237500D03*
%TD*%
D11*
%TO.C,MX0-3*%
X107150000Y-50000000D03*
D12*
X112230000Y-50000000D03*
X102070000Y-50000000D03*
%TD*%
D11*
%TO.C,MX0-10*%
X240500000Y-45237500D03*
D12*
X245580000Y-45237500D03*
X235420000Y-45237500D03*
%TD*%
%TO.C,MX4-10_0*%
X254470000Y-126200000D03*
X264630000Y-126200000D03*
D11*
X259550000Y-126200000D03*
%TD*%
D12*
%TO.C,MX1-15*%
X335432500Y-64287500D03*
D11*
X340512500Y-64287500D03*
D12*
X345592500Y-64287500D03*
%TD*%
%TO.C,MX3-3*%
X116357500Y-107150000D03*
X126517500Y-107150000D03*
D11*
X121437500Y-107150000D03*
%TD*%
D13*
%TO.C,ST-3_0*%
X154775000Y-133185000D03*
D11*
X116675000Y-117945000D03*
X154775000Y-117945000D03*
D13*
X116675000Y-133185000D03*
%TD*%
D11*
%TO.C,MX1-8*%
X202400000Y-69050000D03*
D12*
X207480000Y-69050000D03*
X197320000Y-69050000D03*
%TD*%
D11*
%TO.C,ST-A_0*%
X280981250Y-77305000D03*
X257168750Y-77305000D03*
D13*
X280981250Y-62065000D03*
X257168750Y-62065000D03*
%TD*%
D12*
%TO.C,MX1-14*%
X316382500Y-64287500D03*
X326542500Y-64287500D03*
D11*
X321462500Y-64287500D03*
%TD*%
D12*
%TO.C,MX1-6*%
X159220000Y-69050000D03*
D11*
X164300000Y-69050000D03*
D12*
X169380000Y-69050000D03*
%TD*%
D11*
%TO.C,MX4-1_2*%
X73812500Y-126200000D03*
D12*
X68732500Y-126200000D03*
X78892500Y-126200000D03*
%TD*%
D11*
%TO.C,ST-3_1*%
X211925000Y-117945000D03*
X173825000Y-117945000D03*
D13*
X173825000Y-133185000D03*
X211925000Y-133185000D03*
%TD*%
D12*
%TO.C,MX4-4_0*%
X169380000Y-126200000D03*
D11*
X164300000Y-126200000D03*
D12*
X159220000Y-126200000D03*
%TD*%
%TO.C,MX2-11*%
X266376250Y-88100000D03*
D11*
X271456250Y-88100000D03*
D12*
X276536250Y-88100000D03*
%TD*%
%TO.C,MX3-10*%
X249707500Y-107150000D03*
D11*
X254787500Y-107150000D03*
D12*
X259867500Y-107150000D03*
%TD*%
D11*
%TO.C,MX2-1*%
X73812500Y-88100000D03*
D12*
X78892500Y-88100000D03*
X68732500Y-88100000D03*
%TD*%
D11*
%TO.C,MX1-4*%
X126200000Y-69050000D03*
D12*
X131280000Y-69050000D03*
X121120000Y-69050000D03*
%TD*%
D13*
%TO.C,ST-0_0*%
X221450000Y-133185000D03*
X107150000Y-133185000D03*
D11*
X221450000Y-117945000D03*
X107150000Y-117945000D03*
%TD*%
D12*
%TO.C,MX4-3_4*%
X113976250Y-126200000D03*
D11*
X119056250Y-126200000D03*
D12*
X124136250Y-126200000D03*
%TD*%
%TO.C,MX3-9*%
X240817500Y-107150000D03*
X230657500Y-107150000D03*
D11*
X235737500Y-107150000D03*
%TD*%
%TO.C,MX4-2_2*%
X95243750Y-126200000D03*
D12*
X100323750Y-126200000D03*
X90163750Y-126200000D03*
%TD*%
%TO.C,MX1-13*%
X307492500Y-64287500D03*
D11*
X302412500Y-64287500D03*
D12*
X297332500Y-64287500D03*
%TD*%
%TO.C,MX3-11*%
X281298750Y-107150000D03*
D11*
X276218750Y-107150000D03*
D12*
X271138750Y-107150000D03*
%TD*%
D11*
%TO.C,MX2-8*%
X207162500Y-88100000D03*
D12*
X202082500Y-88100000D03*
X212242500Y-88100000D03*
%TD*%
%TO.C,MX2-5*%
X144932500Y-88100000D03*
X155092500Y-88100000D03*
D11*
X150012500Y-88100000D03*
%TD*%
D12*
%TO.C,MX2-3*%
X106832500Y-88100000D03*
X116992500Y-88100000D03*
D11*
X111912500Y-88100000D03*
%TD*%
D12*
%TO.C,MX3-8*%
X221767500Y-107150000D03*
D11*
X216687500Y-107150000D03*
D12*
X211607500Y-107150000D03*
%TD*%
%TO.C,MX1-11*%
X264630000Y-69050000D03*
D11*
X259550000Y-69050000D03*
D12*
X254470000Y-69050000D03*
%TD*%
%TO.C,MX4-14*%
X326542500Y-126200000D03*
D11*
X321462500Y-126200000D03*
D12*
X316382500Y-126200000D03*
%TD*%
%TO.C,MX1-1*%
X63970000Y-69050000D03*
D11*
X69050000Y-69050000D03*
D12*
X74130000Y-69050000D03*
%TD*%
%TO.C,MX3-4*%
X145567500Y-107150000D03*
D11*
X140487500Y-107150000D03*
D12*
X135407500Y-107150000D03*
%TD*%
%TO.C,MX3-5*%
X164617500Y-107150000D03*
D11*
X159537500Y-107150000D03*
D12*
X154457500Y-107150000D03*
%TD*%
D11*
%TO.C,MX0-13*%
X302412500Y-45237500D03*
D12*
X307492500Y-45237500D03*
X297332500Y-45237500D03*
%TD*%
D11*
%TO.C,MX4-9_2*%
X233356250Y-126200000D03*
D12*
X228276250Y-126200000D03*
X238436250Y-126200000D03*
%TD*%
%TO.C,MX4-4_3*%
X130645000Y-126200000D03*
D11*
X135725000Y-126200000D03*
D12*
X140805000Y-126200000D03*
%TD*%
%TO.C,MX1-A12*%
X283680000Y-69050000D03*
X273520000Y-69050000D03*
D11*
X278600000Y-69050000D03*
%TD*%
%TO.C,ST-1_0*%
X97625000Y-117945000D03*
D13*
X230975000Y-133185000D03*
X97625000Y-133185000D03*
D11*
X230975000Y-117945000D03*
%TD*%
D12*
%TO.C,MX1-2*%
X83020000Y-69050000D03*
D11*
X88100000Y-69050000D03*
D12*
X93180000Y-69050000D03*
%TD*%
D11*
%TO.C,MX1-10*%
X240500000Y-69050000D03*
D12*
X235420000Y-69050000D03*
X245580000Y-69050000D03*
%TD*%
D11*
%TO.C,MX4-2_0*%
X88100000Y-126200000D03*
D12*
X83020000Y-126200000D03*
X93180000Y-126200000D03*
%TD*%
%TO.C,MX1-3*%
X102070000Y-69050000D03*
D11*
X107150000Y-69050000D03*
D12*
X112230000Y-69050000D03*
%TD*%
%TO.C,MX4-13*%
X297332500Y-126200000D03*
D11*
X302412500Y-126200000D03*
D12*
X307492500Y-126200000D03*
%TD*%
%TO.C,MX1-5*%
X140170000Y-69050000D03*
D11*
X145250000Y-69050000D03*
D12*
X150330000Y-69050000D03*
%TD*%
%TO.C,MX2-6*%
X163982500Y-88100000D03*
D11*
X169062500Y-88100000D03*
D12*
X174142500Y-88100000D03*
%TD*%
%TO.C,MX4-11_2*%
X271138750Y-126200000D03*
X281298750Y-126200000D03*
D11*
X276218750Y-126200000D03*
%TD*%
D12*
%TO.C,MX4-8_4*%
X214623750Y-126200000D03*
D11*
X209543750Y-126200000D03*
D12*
X204463750Y-126200000D03*
%TD*%
%TO.C,MX2-7*%
X193192500Y-88100000D03*
D11*
X188112500Y-88100000D03*
D12*
X183032500Y-88100000D03*
%TD*%
%TO.C,MX2-9*%
X231292500Y-88100000D03*
D11*
X226212500Y-88100000D03*
D12*
X221132500Y-88100000D03*
%TD*%
D11*
%TO.C,MX4-11_0*%
X278600000Y-126200000D03*
D12*
X283680000Y-126200000D03*
X273520000Y-126200000D03*
%TD*%
%TO.C,MX4-1_0*%
X63970000Y-126200000D03*
X74130000Y-126200000D03*
D11*
X69050000Y-126200000D03*
%TD*%
D12*
%TO.C,MX4-10_2*%
X249707500Y-126200000D03*
D11*
X254787500Y-126200000D03*
D12*
X259867500Y-126200000D03*
%TD*%
D11*
%TO.C,MX0-5*%
X145250000Y-50000000D03*
D12*
X150330000Y-50000000D03*
X140170000Y-50000000D03*
%TD*%
D11*
%TO.C,MX4-2_1*%
X83337500Y-126200000D03*
D12*
X78257500Y-126200000D03*
X88417500Y-126200000D03*
%TD*%
%TO.C,MX4-11_1*%
X268757500Y-126200000D03*
D11*
X273837500Y-126200000D03*
D12*
X278917500Y-126200000D03*
%TD*%
%TO.C,MX0-1*%
X74130000Y-50000000D03*
D11*
X69050000Y-50000000D03*
D12*
X63970000Y-50000000D03*
%TD*%
%TO.C,MX3-1*%
X88417500Y-107150000D03*
X78257500Y-107150000D03*
D11*
X83337500Y-107150000D03*
%TD*%
D12*
%TO.C,MX3-7*%
X202717500Y-107150000D03*
D11*
X197637500Y-107150000D03*
D12*
X192557500Y-107150000D03*
%TD*%
%TO.C,MX0-6*%
X159220000Y-50000000D03*
X169380000Y-50000000D03*
D11*
X164300000Y-50000000D03*
%TD*%
%TO.C,MX4-9_0*%
X240500000Y-126200000D03*
D12*
X245580000Y-126200000D03*
X235420000Y-126200000D03*
%TD*%
D11*
%TO.C,MX4-0_0*%
X50000000Y-126200000D03*
D12*
X44920000Y-126200000D03*
X55080000Y-126200000D03*
%TD*%
%TO.C,MX2-2*%
X87782500Y-88100000D03*
D11*
X92862500Y-88100000D03*
D12*
X97942500Y-88100000D03*
%TD*%
D11*
%TO.C,MX0-12*%
X278600000Y-45237500D03*
D12*
X273520000Y-45237500D03*
X283680000Y-45237500D03*
%TD*%
%TO.C,MX1-9*%
X226530000Y-69050000D03*
D11*
X221450000Y-69050000D03*
D12*
X216370000Y-69050000D03*
%TD*%
%TO.C,MX2-4*%
X136042500Y-88100000D03*
X125882500Y-88100000D03*
D11*
X130962500Y-88100000D03*
%TD*%
D12*
%TO.C,MX4-15*%
X345592500Y-126200000D03*
D11*
X340512500Y-126200000D03*
D12*
X335432500Y-126200000D03*
%TD*%
%TO.C,MX1-0*%
X44920000Y-69050000D03*
D11*
X50000000Y-69050000D03*
D12*
X55080000Y-69050000D03*
%TD*%
D11*
%TO.C,MX2-0*%
X52381250Y-88100000D03*
D12*
X47301250Y-88100000D03*
X57461250Y-88100000D03*
%TD*%
%TO.C,MX3-0*%
X62223750Y-107150000D03*
D11*
X57143750Y-107150000D03*
D12*
X52063750Y-107150000D03*
%TD*%
%TO.C,MX3-6*%
X173507500Y-107150000D03*
X183667500Y-107150000D03*
D11*
X178587500Y-107150000D03*
%TD*%
D12*
%TO.C,MX4-7_3*%
X197955000Y-126200000D03*
X187795000Y-126200000D03*
D11*
X192875000Y-126200000D03*
%TD*%
%TO.C,MX0-0*%
X50000000Y-50000000D03*
D12*
X55080000Y-50000000D03*
X44920000Y-50000000D03*
%TD*%
%TO.C,MX0-11*%
X264630000Y-45237500D03*
X254470000Y-45237500D03*
D11*
X259550000Y-45237500D03*
%TD*%
%TO.C,MX0-4*%
X126200000Y-50000000D03*
D12*
X121120000Y-50000000D03*
X131280000Y-50000000D03*
%TD*%
D14*
%TO.C,USB1*%
X198138750Y-34612500D03*
X192358750Y-34612500D03*
D15*
X199568750Y-30962500D03*
D16*
X199568750Y-35142500D03*
X190928750Y-35142500D03*
D15*
X190928750Y-30962500D03*
%TD*%
M02*
