M48
; DRILL file {KiCad (6.0.9)} date Sun Nov 27 16:26:38 2022
; FORMAT={-:-/ absolute / metric / decimal}
; #@! TF.CreationDate,2022-11-27T16:26:38-08:00
; #@! TF.GenerationSoftware,Kicad,Pcbnew,(6.0.9)
; #@! TF.FileFunction,NonPlated,1,2,NPTH
FMAT,2
METRIC
; #@! TA.AperFunction,NonPlated,NPTH,ComponentDrill
T1C0.650
; #@! TA.AperFunction,NonPlated,NPTH,ComponentDrill
T2C1.750
; #@! TA.AperFunction,NonPlated,NPTH,ComponentDrill
T3C3.048
; #@! TA.AperFunction,NonPlated,NPTH,ComponentDrill
T4C3.988
%
G90
G05
T1
X192.359Y-34.612
X198.139Y-34.612
T2
X44.92Y-50.0
X44.92Y-69.05
X44.92Y-126.2
X47.301Y-88.1
X47.301Y-126.2
X49.682Y-126.2
X52.064Y-107.15
X55.08Y-50.0
X55.08Y-69.05
X55.08Y-126.2
X57.461Y-88.1
X57.461Y-126.2
X59.842Y-126.2
X62.224Y-107.15
X63.97Y-50.0
X63.97Y-69.05
X63.97Y-126.2
X68.733Y-88.1
X68.733Y-126.2
X74.13Y-50.0
X74.13Y-69.05
X74.13Y-126.2
X78.257Y-107.15
X78.257Y-126.2
X78.892Y-88.1
X78.892Y-126.2
X83.02Y-50.0
X83.02Y-69.05
X83.02Y-126.2
X87.782Y-88.1
X88.417Y-107.15
X88.417Y-126.2
X90.164Y-126.2
X93.18Y-50.0
X93.18Y-69.05
X93.18Y-126.2
X97.307Y-107.15
X97.942Y-88.1
X100.324Y-126.2
X102.07Y-50.0
X102.07Y-69.05
X106.832Y-88.1
X107.468Y-107.15
X112.23Y-50.0
X112.23Y-69.05
X113.976Y-126.2
X116.358Y-107.15
X116.992Y-88.1
X121.12Y-50.0
X121.12Y-69.05
X124.136Y-126.2
X125.882Y-88.1
X126.517Y-107.15
X130.645Y-126.2
X131.28Y-50.0
X131.28Y-69.05
X135.407Y-107.15
X136.042Y-88.1
X140.17Y-50.0
X140.17Y-69.05
X140.805Y-126.2
X142.551Y-126.2
X144.933Y-88.1
X145.567Y-107.15
X150.33Y-50.0
X150.33Y-69.05
X152.711Y-126.2
X154.457Y-107.15
X155.093Y-88.1
X159.22Y-50.0
X159.22Y-69.05
X159.22Y-126.2
X163.982Y-88.1
X164.617Y-107.15
X168.745Y-126.2
X169.38Y-50.0
X169.38Y-69.05
X169.38Y-126.2
X173.507Y-107.15
X174.142Y-88.1
X175.889Y-126.2
X178.27Y-69.05
X178.905Y-126.2
X183.032Y-88.1
X183.667Y-107.15
X186.049Y-126.2
X187.795Y-126.2
X188.43Y-69.05
X192.558Y-107.15
X193.192Y-88.1
X197.32Y-69.05
X197.955Y-126.2
X202.082Y-88.1
X202.718Y-107.15
X204.464Y-126.2
X207.48Y-69.05
X211.607Y-107.15
X212.242Y-88.1
X214.624Y-126.2
X216.37Y-45.237
X216.37Y-69.05
X221.132Y-88.1
X221.767Y-107.15
X226.53Y-45.237
X226.53Y-69.05
X228.276Y-126.2
X230.657Y-107.15
X231.292Y-88.1
X235.42Y-45.237
X235.42Y-69.05
X235.42Y-126.2
X238.436Y-126.2
X240.182Y-88.1
X240.182Y-126.2
X240.817Y-107.15
X245.58Y-45.237
X245.58Y-69.05
X245.58Y-126.2
X249.707Y-107.15
X249.707Y-126.2
X250.343Y-88.1
X250.343Y-126.2
X254.47Y-45.237
X254.47Y-69.05
X254.47Y-126.2
X259.868Y-107.15
X259.868Y-126.2
X263.995Y-69.05
X264.63Y-45.237
X264.63Y-69.05
X264.63Y-126.2
X266.376Y-88.1
X268.757Y-126.2
X271.139Y-107.15
X271.139Y-126.2
X273.52Y-45.237
X273.52Y-69.05
X273.52Y-126.2
X274.155Y-69.05
X276.536Y-88.1
X278.917Y-126.2
X281.299Y-107.15
X281.299Y-126.2
X283.68Y-45.237
X283.68Y-69.05
X283.68Y-126.2
X297.332Y-45.237
X297.332Y-64.287
X297.332Y-126.2
X307.493Y-45.237
X307.493Y-64.287
X307.493Y-126.2
X316.382Y-45.237
X316.382Y-64.287
X316.382Y-107.15
X316.382Y-126.2
X326.542Y-45.237
X326.542Y-64.287
X326.542Y-107.15
X326.542Y-126.2
X335.433Y-45.237
X335.433Y-64.287
X335.433Y-126.2
X345.592Y-45.237
X345.592Y-64.287
X345.592Y-126.2
T3
X97.625Y-133.185
X107.15Y-133.185
X116.675Y-133.185
X116.675Y-133.185
X154.775Y-133.185
X173.825Y-133.185
X211.925Y-133.185
X211.925Y-133.185
X221.45Y-133.185
X230.975Y-133.185
X257.169Y-62.065
X280.981Y-62.065
T4
X50.0Y-50.0
X50.0Y-69.05
X50.0Y-126.2
X52.381Y-88.1
X52.381Y-126.2
X54.762Y-126.2
X57.144Y-107.15
X69.05Y-50.0
X69.05Y-69.05
X69.05Y-126.2
X73.812Y-88.1
X73.812Y-126.2
X83.337Y-107.15
X83.337Y-126.2
X88.1Y-50.0
X88.1Y-69.05
X88.1Y-126.2
X92.862Y-88.1
X95.244Y-126.2
X97.625Y-117.945
X102.387Y-107.15
X107.15Y-50.0
X107.15Y-69.05
X107.15Y-117.945
X111.912Y-88.1
X116.675Y-117.945
X116.675Y-117.945
X119.056Y-126.2
X121.438Y-107.15
X126.2Y-50.0
X126.2Y-69.05
X130.963Y-88.1
X135.725Y-126.2
X140.487Y-107.15
X145.25Y-50.0
X145.25Y-69.05
X147.631Y-126.2
X150.012Y-88.1
X154.775Y-117.945
X159.537Y-107.15
X164.3Y-50.0
X164.3Y-69.05
X164.3Y-126.2
X169.062Y-88.1
X173.825Y-117.945
X173.825Y-126.2
X178.588Y-107.15
X180.969Y-126.2
X183.35Y-69.05
X188.112Y-88.1
X192.875Y-126.2
X197.637Y-107.15
X202.4Y-69.05
X207.162Y-88.1
X209.544Y-126.2
X211.925Y-117.945
X211.925Y-117.945
X216.688Y-107.15
X221.45Y-45.237
X221.45Y-69.05
X221.45Y-117.945
X226.212Y-88.1
X230.975Y-117.945
X233.356Y-126.2
X235.737Y-107.15
X240.5Y-45.237
X240.5Y-69.05
X240.5Y-126.2
X245.262Y-88.1
X245.262Y-126.2
X254.787Y-107.15
X254.787Y-126.2
X257.169Y-77.305
X259.55Y-45.237
X259.55Y-69.05
X259.55Y-126.2
X269.075Y-69.05
X271.456Y-88.1
X273.837Y-126.2
X276.219Y-107.15
X276.219Y-126.2
X278.6Y-45.237
X278.6Y-69.05
X278.6Y-126.2
X280.981Y-77.305
X302.412Y-45.237
X302.412Y-64.287
X302.412Y-126.2
X321.462Y-45.237
X321.462Y-64.287
X321.462Y-107.15
X321.462Y-126.2
X340.512Y-45.237
X340.512Y-64.287
X340.512Y-126.2
T0
M30
