%TF.GenerationSoftware,KiCad,Pcbnew,(6.0.9)*%
%TF.CreationDate,2022-11-27T02:07:55-08:00*%
%TF.ProjectId,40s-2040rmie,3430732d-3230-4343-9072-6d69652e6b69,rev?*%
%TF.SameCoordinates,Original*%
%TF.FileFunction,Soldermask,Bot*%
%TF.FilePolarity,Negative*%
%FSLAX46Y46*%
G04 Gerber Fmt 4.6, Leading zero omitted, Abs format (unit mm)*
G04 Created by KiCad (PCBNEW (6.0.9)) date 2022-11-27 02:07:55*
%MOMM*%
%LPD*%
G01*
G04 APERTURE LIST*
G04 Aperture macros list*
%AMRoundRect*
0 Rectangle with rounded corners*
0 $1 Rounding radius*
0 $2 $3 $4 $5 $6 $7 $8 $9 X,Y pos of 4 corners*
0 Add a 4 corners polygon primitive as box body*
4,1,4,$2,$3,$4,$5,$6,$7,$8,$9,$2,$3,0*
0 Add four circle primitives for the rounded corners*
1,1,$1+$1,$2,$3*
1,1,$1+$1,$4,$5*
1,1,$1+$1,$6,$7*
1,1,$1+$1,$8,$9*
0 Add four rect primitives between the rounded corners*
20,1,$1+$1,$2,$3,$4,$5,0*
20,1,$1+$1,$4,$5,$6,$7,0*
20,1,$1+$1,$6,$7,$8,$9,0*
20,1,$1+$1,$8,$9,$2,$3,0*%
G04 Aperture macros list end*
%ADD10C,0.200000*%
%ADD11C,3.987800*%
%ADD12C,1.750000*%
%ADD13C,2.300000*%
%ADD14C,3.048000*%
%ADD15C,2.000000*%
%ADD16RoundRect,0.140000X-0.140000X-0.170000X0.140000X-0.170000X0.140000X0.170000X-0.140000X0.170000X0*%
%ADD17R,1.200000X0.900000*%
%ADD18RoundRect,0.135000X0.185000X-0.135000X0.185000X0.135000X-0.185000X0.135000X-0.185000X-0.135000X0*%
%ADD19RoundRect,0.140000X0.140000X0.170000X-0.140000X0.170000X-0.140000X-0.170000X0.140000X-0.170000X0*%
%ADD20RoundRect,0.200000X-0.335876X-0.053033X-0.053033X-0.335876X0.335876X0.053033X0.053033X0.335876X0*%
%ADD21RoundRect,0.135000X-0.185000X0.135000X-0.185000X-0.135000X0.185000X-0.135000X0.185000X0.135000X0*%
%ADD22R,1.200000X1.400000*%
%ADD23RoundRect,0.140000X0.170000X-0.140000X0.170000X0.140000X-0.170000X0.140000X-0.170000X-0.140000X0*%
%ADD24RoundRect,0.140000X-0.170000X0.140000X-0.170000X-0.140000X0.170000X-0.140000X0.170000X0.140000X0*%
%ADD25RoundRect,0.150000X0.587500X0.150000X-0.587500X0.150000X-0.587500X-0.150000X0.587500X-0.150000X0*%
%ADD26RoundRect,0.250000X0.625000X-0.375000X0.625000X0.375000X-0.625000X0.375000X-0.625000X-0.375000X0*%
%ADD27RoundRect,0.150000X0.650000X0.150000X-0.650000X0.150000X-0.650000X-0.150000X0.650000X-0.150000X0*%
%ADD28C,0.650000*%
%ADD29R,0.600000X1.450000*%
%ADD30R,0.300000X1.450000*%
%ADD31O,1.000000X1.600000*%
%ADD32O,1.000000X2.100000*%
%ADD33RoundRect,0.050000X0.387500X0.050000X-0.387500X0.050000X-0.387500X-0.050000X0.387500X-0.050000X0*%
%ADD34RoundRect,0.050000X0.050000X0.387500X-0.050000X0.387500X-0.050000X-0.387500X0.050000X-0.387500X0*%
%ADD35RoundRect,0.144000X1.456000X1.456000X-1.456000X1.456000X-1.456000X-1.456000X1.456000X-1.456000X0*%
%ADD36RoundRect,0.275000X-1.125000X-0.275000X1.125000X-0.275000X1.125000X0.275000X-1.125000X0.275000X0*%
%ADD37RoundRect,0.150000X-0.475000X-0.150000X0.475000X-0.150000X0.475000X0.150000X-0.475000X0.150000X0*%
G04 APERTURE END LIST*
D10*
X330245950Y-71519750D02*
G75*
G03*
X328995950Y-72769750I50J-1250050D01*
G01*
X328995950Y-78269750D02*
X328995950Y-72769750D01*
X342745950Y-79519750D02*
G75*
G03*
X343995950Y-78269750I-50J1250050D01*
G01*
X343995950Y-72769750D02*
G75*
G03*
X342745950Y-71519750I-1250050J-50D01*
G01*
X328995950Y-78269750D02*
G75*
G03*
X330245950Y-79519750I1250050J50D01*
G01*
X342745950Y-79519750D02*
X330245950Y-79519750D01*
X343995950Y-72769750D02*
X343995950Y-78269750D01*
X330245950Y-71519750D02*
X342745950Y-71519750D01*
X341667772Y-72890464D02*
X341751105Y-73557130D01*
X341858248Y-72509511D02*
X342185629Y-73223797D01*
X341566582Y-73223797D01*
X340911820Y-72557130D02*
X340816582Y-72557130D01*
X340727296Y-72604750D01*
X340685629Y-72652369D01*
X340649915Y-72747607D01*
X340626105Y-72938083D01*
X340655867Y-73176178D01*
X340727296Y-73366654D01*
X340786820Y-73461892D01*
X340840391Y-73509511D01*
X340941582Y-73557130D01*
X341036820Y-73557130D01*
X341126105Y-73509511D01*
X341167772Y-73461892D01*
X341203486Y-73366654D01*
X341227296Y-73176178D01*
X341197534Y-72938083D01*
X341126105Y-72747607D01*
X341066582Y-72652369D01*
X341013010Y-72604750D01*
X340911820Y-72557130D01*
X340316582Y-73509511D02*
X340227296Y-73557130D01*
X340036820Y-73557130D01*
X339935629Y-73509511D01*
X339876105Y-73414273D01*
X339870153Y-73366654D01*
X339905867Y-73271416D01*
X339995153Y-73223797D01*
X340138010Y-73223797D01*
X340227296Y-73176178D01*
X340263010Y-73080940D01*
X340257058Y-73033321D01*
X340197534Y-72938083D01*
X340096344Y-72890464D01*
X339953486Y-72890464D01*
X339864201Y-72938083D01*
X339417772Y-73176178D02*
X338655867Y-73176178D01*
X338161820Y-72652369D02*
X338108248Y-72604750D01*
X338007058Y-72557130D01*
X337768963Y-72557130D01*
X337679677Y-72604750D01*
X337638010Y-72652369D01*
X337602296Y-72747607D01*
X337614201Y-72842845D01*
X337679677Y-72985702D01*
X338322534Y-73557130D01*
X337703486Y-73557130D01*
X336959439Y-72557130D02*
X336864201Y-72557130D01*
X336774915Y-72604750D01*
X336733248Y-72652369D01*
X336697534Y-72747607D01*
X336673725Y-72938083D01*
X336703486Y-73176178D01*
X336774915Y-73366654D01*
X336834439Y-73461892D01*
X336888010Y-73509511D01*
X336989201Y-73557130D01*
X337084439Y-73557130D01*
X337173725Y-73509511D01*
X337215391Y-73461892D01*
X337251105Y-73366654D01*
X337274915Y-73176178D01*
X337245153Y-72938083D01*
X337173725Y-72747607D01*
X337114201Y-72652369D01*
X337060629Y-72604750D01*
X336959439Y-72557130D01*
X335810629Y-72890464D02*
X335893963Y-73557130D01*
X336001105Y-72509511D02*
X336328486Y-73223797D01*
X335709439Y-73223797D01*
X335054677Y-72557130D02*
X334959439Y-72557130D01*
X334870153Y-72604750D01*
X334828486Y-72652369D01*
X334792772Y-72747607D01*
X334768963Y-72938083D01*
X334798725Y-73176178D01*
X334870153Y-73366654D01*
X334929677Y-73461892D01*
X334983248Y-73509511D01*
X335084439Y-73557130D01*
X335179677Y-73557130D01*
X335268963Y-73509511D01*
X335310629Y-73461892D01*
X335346344Y-73366654D01*
X335370153Y-73176178D01*
X335340391Y-72938083D01*
X335268963Y-72747607D01*
X335209439Y-72652369D01*
X335155867Y-72604750D01*
X335054677Y-72557130D01*
X334417772Y-73557130D02*
X334334439Y-72890464D01*
X334358248Y-73080940D02*
X334298725Y-72985702D01*
X334245153Y-72938083D01*
X334143963Y-72890464D01*
X334048725Y-72890464D01*
X333798725Y-73557130D02*
X333715391Y-72890464D01*
X333727296Y-72985702D02*
X333673725Y-72938083D01*
X333572534Y-72890464D01*
X333429677Y-72890464D01*
X333340391Y-72938083D01*
X333304677Y-73033321D01*
X333370153Y-73557130D01*
X333304677Y-73033321D02*
X333245153Y-72938083D01*
X333143963Y-72890464D01*
X333001105Y-72890464D01*
X332911820Y-72938083D01*
X332876105Y-73033321D01*
X332941582Y-73557130D01*
X332465391Y-73557130D02*
X332382058Y-72890464D01*
X332340391Y-72557130D02*
X332393963Y-72604750D01*
X332352296Y-72652369D01*
X332298725Y-72604750D01*
X332340391Y-72557130D01*
X332352296Y-72652369D01*
X331602296Y-73509511D02*
X331703486Y-73557130D01*
X331893963Y-73557130D01*
X331983248Y-73509511D01*
X332018963Y-73414273D01*
X331971344Y-73033321D01*
X331911820Y-72938083D01*
X331810629Y-72890464D01*
X331620153Y-72890464D01*
X331530867Y-72938083D01*
X331495153Y-73033321D01*
X331507058Y-73128559D01*
X331995153Y-73223797D01*
X342179677Y-75167130D02*
X342096344Y-74500464D01*
X342120153Y-74690940D02*
X342060629Y-74595702D01*
X342007058Y-74548083D01*
X341905867Y-74500464D01*
X341810629Y-74500464D01*
X341173725Y-75119511D02*
X341274915Y-75167130D01*
X341465391Y-75167130D01*
X341554677Y-75119511D01*
X341590391Y-75024273D01*
X341542772Y-74643321D01*
X341483248Y-74548083D01*
X341382058Y-74500464D01*
X341191582Y-74500464D01*
X341102296Y-74548083D01*
X341066582Y-74643321D01*
X341078486Y-74738559D01*
X341566582Y-74833797D01*
X340715391Y-74500464D02*
X340560629Y-75167130D01*
X340239201Y-74500464D01*
X339417772Y-75167130D02*
X339989201Y-75167130D01*
X339703486Y-75167130D02*
X339578486Y-74167130D01*
X339691582Y-74309988D01*
X339798725Y-74405226D01*
X339899915Y-74452845D01*
X338977296Y-75071892D02*
X338935629Y-75119511D01*
X338989201Y-75167130D01*
X339030867Y-75119511D01*
X338977296Y-75071892D01*
X338989201Y-75167130D01*
X338197534Y-74167130D02*
X338102296Y-74167130D01*
X338013010Y-74214750D01*
X337971344Y-74262369D01*
X337935629Y-74357607D01*
X337911820Y-74548083D01*
X337941582Y-74786178D01*
X338013010Y-74976654D01*
X338072534Y-75071892D01*
X338126105Y-75119511D01*
X338227296Y-75167130D01*
X338322534Y-75167130D01*
X338411820Y-75119511D01*
X338453486Y-75071892D01*
X338489201Y-74976654D01*
X338513010Y-74786178D01*
X338483248Y-74548083D01*
X338411820Y-74357607D01*
X338352296Y-74262369D01*
X338298725Y-74214750D01*
X338197534Y-74167130D01*
X341751105Y-76777130D02*
X341626105Y-75777130D01*
X341745153Y-76729511D02*
X341846344Y-76777130D01*
X342036820Y-76777130D01*
X342126105Y-76729511D01*
X342167772Y-76681892D01*
X342203486Y-76586654D01*
X342167772Y-76300940D01*
X342108248Y-76205702D01*
X342054677Y-76158083D01*
X341953486Y-76110464D01*
X341763010Y-76110464D01*
X341673725Y-76158083D01*
X340888010Y-76729511D02*
X340989201Y-76777130D01*
X341179677Y-76777130D01*
X341268963Y-76729511D01*
X341304677Y-76634273D01*
X341257058Y-76253321D01*
X341197534Y-76158083D01*
X341096344Y-76110464D01*
X340905867Y-76110464D01*
X340816582Y-76158083D01*
X340780867Y-76253321D01*
X340792772Y-76348559D01*
X341280867Y-76443797D01*
X340459439Y-76729511D02*
X340370153Y-76777130D01*
X340179677Y-76777130D01*
X340078486Y-76729511D01*
X340018963Y-76634273D01*
X340013010Y-76586654D01*
X340048725Y-76491416D01*
X340138010Y-76443797D01*
X340280867Y-76443797D01*
X340370153Y-76396178D01*
X340405867Y-76300940D01*
X340399915Y-76253321D01*
X340340391Y-76158083D01*
X340239201Y-76110464D01*
X340096344Y-76110464D01*
X340007058Y-76158083D01*
X339608248Y-76777130D02*
X339524915Y-76110464D01*
X339483248Y-75777130D02*
X339536820Y-75824750D01*
X339495153Y-75872369D01*
X339441582Y-75824750D01*
X339483248Y-75777130D01*
X339495153Y-75872369D01*
X338620153Y-76110464D02*
X338721344Y-76919988D01*
X338780867Y-77015226D01*
X338834439Y-77062845D01*
X338935629Y-77110464D01*
X339078486Y-77110464D01*
X339167772Y-77062845D01*
X338697534Y-76729511D02*
X338798725Y-76777130D01*
X338989201Y-76777130D01*
X339078486Y-76729511D01*
X339120153Y-76681892D01*
X339155867Y-76586654D01*
X339120153Y-76300940D01*
X339060629Y-76205702D01*
X339007058Y-76158083D01*
X338905867Y-76110464D01*
X338715391Y-76110464D01*
X338626105Y-76158083D01*
X338143963Y-76110464D02*
X338227296Y-76777130D01*
X338155867Y-76205702D02*
X338102296Y-76158083D01*
X338001105Y-76110464D01*
X337858248Y-76110464D01*
X337768963Y-76158083D01*
X337733248Y-76253321D01*
X337798725Y-76777130D01*
X336935629Y-76729511D02*
X337036820Y-76777130D01*
X337227296Y-76777130D01*
X337316582Y-76729511D01*
X337352296Y-76634273D01*
X337304677Y-76253321D01*
X337245153Y-76158083D01*
X337143963Y-76110464D01*
X336953486Y-76110464D01*
X336864201Y-76158083D01*
X336828486Y-76253321D01*
X336840391Y-76348559D01*
X337328486Y-76443797D01*
X336036820Y-76777130D02*
X335911820Y-75777130D01*
X336030867Y-76729511D02*
X336132058Y-76777130D01*
X336322534Y-76777130D01*
X336411820Y-76729511D01*
X336453486Y-76681892D01*
X336489201Y-76586654D01*
X336453486Y-76300940D01*
X336393963Y-76205702D01*
X336340391Y-76158083D01*
X336239201Y-76110464D01*
X336048725Y-76110464D01*
X335959439Y-76158083D01*
X334798725Y-76777130D02*
X334673725Y-75777130D01*
X334721344Y-76158083D02*
X334620153Y-76110464D01*
X334429677Y-76110464D01*
X334340391Y-76158083D01*
X334298725Y-76205702D01*
X334263010Y-76300940D01*
X334298725Y-76586654D01*
X334358248Y-76681892D01*
X334411820Y-76729511D01*
X334513010Y-76777130D01*
X334703486Y-76777130D01*
X334792772Y-76729511D01*
X333905867Y-76110464D02*
X333751105Y-76777130D01*
X333429677Y-76110464D02*
X333751105Y-76777130D01*
X333876105Y-77015226D01*
X333929677Y-77062845D01*
X334030867Y-77110464D01*
X342221344Y-78339511D02*
X342084439Y-78387130D01*
X341846344Y-78387130D01*
X341745153Y-78339511D01*
X341691582Y-78291892D01*
X341632058Y-78196654D01*
X341620153Y-78101416D01*
X341655867Y-78006178D01*
X341697534Y-77958559D01*
X341786820Y-77910940D01*
X341971344Y-77863321D01*
X342060629Y-77815702D01*
X342102296Y-77768083D01*
X342138010Y-77672845D01*
X342126105Y-77577607D01*
X342066582Y-77482369D01*
X342013010Y-77434750D01*
X341911820Y-77387130D01*
X341673725Y-77387130D01*
X341536820Y-77434750D01*
X341227296Y-78387130D02*
X341102296Y-77387130D01*
X340798725Y-78387130D02*
X340733248Y-77863321D01*
X340768963Y-77768083D01*
X340858248Y-77720464D01*
X341001105Y-77720464D01*
X341102296Y-77768083D01*
X341155867Y-77815702D01*
X340322534Y-78387130D02*
X340239201Y-77720464D01*
X340197534Y-77387130D02*
X340251105Y-77434750D01*
X340209439Y-77482369D01*
X340155867Y-77434750D01*
X340197534Y-77387130D01*
X340209439Y-77482369D01*
X339763010Y-77720464D02*
X339846344Y-78387130D01*
X339774915Y-77815702D02*
X339721344Y-77768083D01*
X339620153Y-77720464D01*
X339477296Y-77720464D01*
X339388010Y-77768083D01*
X339352296Y-77863321D01*
X339417772Y-78387130D01*
X338941582Y-78387130D02*
X338816582Y-77387130D01*
X338798725Y-78006178D02*
X338560629Y-78387130D01*
X338477296Y-77720464D02*
X338905867Y-78101416D01*
X337703486Y-78387130D02*
X337638010Y-77863321D01*
X337673725Y-77768083D01*
X337763010Y-77720464D01*
X337953486Y-77720464D01*
X338054677Y-77768083D01*
X337697534Y-78339511D02*
X337798725Y-78387130D01*
X338036820Y-78387130D01*
X338126105Y-78339511D01*
X338161820Y-78244273D01*
X338149915Y-78149035D01*
X338090391Y-78053797D01*
X337989201Y-78006178D01*
X337751105Y-78006178D01*
X337649915Y-77958559D01*
X337227296Y-78387130D02*
X337143963Y-77720464D01*
X337102296Y-77387130D02*
X337155867Y-77434750D01*
X337114201Y-77482369D01*
X337060629Y-77434750D01*
X337102296Y-77387130D01*
X337114201Y-77482369D01*
X335989201Y-78387130D02*
X335864201Y-77387130D01*
X335620153Y-78101416D01*
X335197534Y-77387130D01*
X335322534Y-78387130D01*
X334417772Y-78387130D02*
X334352296Y-77863321D01*
X334388010Y-77768083D01*
X334477296Y-77720464D01*
X334667772Y-77720464D01*
X334768963Y-77768083D01*
X334411820Y-78339511D02*
X334513010Y-78387130D01*
X334751105Y-78387130D01*
X334840391Y-78339511D01*
X334876105Y-78244273D01*
X334864201Y-78149035D01*
X334804677Y-78053797D01*
X334703486Y-78006178D01*
X334465391Y-78006178D01*
X334364201Y-77958559D01*
X333953486Y-77720464D02*
X333798725Y-78387130D01*
X333477296Y-77720464D02*
X333798725Y-78387130D01*
X333923725Y-78625226D01*
X333977296Y-78672845D01*
X334078486Y-78720464D01*
X332751105Y-78387130D02*
X332685629Y-77863321D01*
X332721344Y-77768083D01*
X332810629Y-77720464D01*
X333001105Y-77720464D01*
X333102296Y-77768083D01*
X332745153Y-78339511D02*
X332846344Y-78387130D01*
X333084439Y-78387130D01*
X333173725Y-78339511D01*
X333209439Y-78244273D01*
X333197534Y-78149035D01*
X333138010Y-78053797D01*
X333036820Y-78006178D01*
X332798725Y-78006178D01*
X332697534Y-77958559D01*
X332191582Y-77720464D02*
X332274915Y-78387130D01*
X332203486Y-77815702D02*
X332149915Y-77768083D01*
X332048725Y-77720464D01*
X331905867Y-77720464D01*
X331816582Y-77768083D01*
X331780867Y-77863321D01*
X331846344Y-78387130D01*
X331227296Y-78387130D02*
X331316582Y-78339511D01*
X331358248Y-78291892D01*
X331393963Y-78196654D01*
X331358248Y-77910940D01*
X331298725Y-77815702D01*
X331245153Y-77768083D01*
X331143963Y-77720464D01*
X331001105Y-77720464D01*
X330911820Y-77768083D01*
X330870153Y-77815702D01*
X330834439Y-77910940D01*
X330870153Y-78196654D01*
X330929677Y-78291892D01*
X330983248Y-78339511D01*
X331084439Y-78387130D01*
X331227296Y-78387130D01*
D11*
%TO.C,MX4-9_1*%
X245262500Y-126200000D03*
D12*
X250342500Y-126200000D03*
X240182500Y-126200000D03*
D13*
X241452500Y-123660000D03*
X247802500Y-121120000D03*
%TD*%
D11*
%TO.C,MX4-7_2*%
X173825000Y-126200000D03*
D12*
X168745000Y-126200000D03*
X178905000Y-126200000D03*
D13*
X170015000Y-123660000D03*
X176365000Y-121120000D03*
%TD*%
D12*
%TO.C,MX3-2*%
X97307500Y-107150000D03*
D11*
X102387500Y-107150000D03*
D12*
X107467500Y-107150000D03*
D13*
X98577500Y-104610000D03*
X104927500Y-102070000D03*
%TD*%
D12*
%TO.C,MX3-14*%
X326542500Y-107150000D03*
X316382500Y-107150000D03*
D11*
X321462500Y-107150000D03*
D13*
X317652500Y-104610000D03*
X324002500Y-102070000D03*
%TD*%
D11*
%TO.C,ST-2_0*%
X211925000Y-117945000D03*
D14*
X211925000Y-133185000D03*
X116675000Y-133185000D03*
D11*
X116675000Y-117945000D03*
%TD*%
D12*
%TO.C,MX0-9*%
X226530000Y-45237500D03*
D11*
X221450000Y-45237500D03*
D12*
X216370000Y-45237500D03*
D13*
X217640000Y-42697500D03*
X223990000Y-40157500D03*
%TD*%
D11*
%TO.C,MX4-0_1*%
X54762500Y-126200000D03*
D12*
X59842500Y-126200000D03*
X49682500Y-126200000D03*
D13*
X50952500Y-123660000D03*
X57302500Y-121120000D03*
%TD*%
D11*
%TO.C,MX4-0_2*%
X52381250Y-126200000D03*
D12*
X57461250Y-126200000D03*
X47301250Y-126200000D03*
D13*
X48571250Y-123660000D03*
X54921250Y-121120000D03*
%TD*%
D12*
%TO.C,MX2-10*%
X250342500Y-88100000D03*
D11*
X245262500Y-88100000D03*
D12*
X240182500Y-88100000D03*
D13*
X241452500Y-85560000D03*
X247802500Y-83020000D03*
%TD*%
D12*
%TO.C,MX4-7_4*%
X186048750Y-126200000D03*
D11*
X180968750Y-126200000D03*
D12*
X175888750Y-126200000D03*
D13*
X177158750Y-123660000D03*
X183508750Y-121120000D03*
%TD*%
D12*
%TO.C,MX1-7*%
X188430000Y-69050000D03*
X178270000Y-69050000D03*
D11*
X183350000Y-69050000D03*
D13*
X179540000Y-66510000D03*
X185890000Y-63970000D03*
%TD*%
D12*
%TO.C,MX0-15*%
X345592500Y-45237500D03*
D11*
X340512500Y-45237500D03*
D12*
X335432500Y-45237500D03*
D13*
X336702500Y-42697500D03*
X343052500Y-40157500D03*
%TD*%
D12*
%TO.C,MX4-4_4*%
X152711250Y-126200000D03*
D11*
X147631250Y-126200000D03*
D12*
X142551250Y-126200000D03*
D13*
X143821250Y-123660000D03*
X150171250Y-121120000D03*
%TD*%
D11*
%TO.C,MX0-2*%
X88100000Y-50000000D03*
D12*
X83020000Y-50000000D03*
X93180000Y-50000000D03*
D13*
X84290000Y-47460000D03*
X90640000Y-44920000D03*
%TD*%
D12*
%TO.C,MX1-B12*%
X263995000Y-69050000D03*
X274155000Y-69050000D03*
D11*
X269075000Y-69050000D03*
D13*
X265265000Y-66510000D03*
X271615000Y-63970000D03*
%TD*%
D12*
%TO.C,MX0-14*%
X316382500Y-45237500D03*
D11*
X321462500Y-45237500D03*
D12*
X326542500Y-45237500D03*
D13*
X317652500Y-42697500D03*
X324002500Y-40157500D03*
%TD*%
D11*
%TO.C,MX0-3*%
X107150000Y-50000000D03*
D12*
X112230000Y-50000000D03*
X102070000Y-50000000D03*
D13*
X103340000Y-47460000D03*
X109690000Y-44920000D03*
%TD*%
D11*
%TO.C,MX0-10*%
X240500000Y-45237500D03*
D12*
X245580000Y-45237500D03*
X235420000Y-45237500D03*
D13*
X236690000Y-42697500D03*
X243040000Y-40157500D03*
%TD*%
D12*
%TO.C,MX4-10_0*%
X254470000Y-126200000D03*
X264630000Y-126200000D03*
D11*
X259550000Y-126200000D03*
D13*
X255740000Y-123660000D03*
X262090000Y-121120000D03*
%TD*%
D12*
%TO.C,MX1-15*%
X335432500Y-64287500D03*
D11*
X340512500Y-64287500D03*
D12*
X345592500Y-64287500D03*
D13*
X336702500Y-61747500D03*
X343052500Y-59207500D03*
%TD*%
D12*
%TO.C,MX3-3*%
X116357500Y-107150000D03*
X126517500Y-107150000D03*
D11*
X121437500Y-107150000D03*
D13*
X117627500Y-104610000D03*
X123977500Y-102070000D03*
%TD*%
D14*
%TO.C,ST-3_0*%
X154775000Y-133185000D03*
D11*
X116675000Y-117945000D03*
X154775000Y-117945000D03*
D14*
X116675000Y-133185000D03*
%TD*%
D11*
%TO.C,MX1-8*%
X202400000Y-69050000D03*
D12*
X207480000Y-69050000D03*
X197320000Y-69050000D03*
D13*
X198590000Y-66510000D03*
X204940000Y-63970000D03*
%TD*%
D11*
%TO.C,ST-A_0*%
X257168750Y-60795000D03*
X280981250Y-60795000D03*
D14*
X257168750Y-76035000D03*
X280981250Y-76035000D03*
%TD*%
D12*
%TO.C,MX1-14*%
X316382500Y-64287500D03*
X326542500Y-64287500D03*
D11*
X321462500Y-64287500D03*
D13*
X317652500Y-61747500D03*
X324002500Y-59207500D03*
%TD*%
D12*
%TO.C,MX1-6*%
X159220000Y-69050000D03*
D11*
X164300000Y-69050000D03*
D12*
X169380000Y-69050000D03*
D13*
X160490000Y-66510000D03*
X166840000Y-63970000D03*
%TD*%
D11*
%TO.C,MX4-1_2*%
X73812500Y-126200000D03*
D12*
X68732500Y-126200000D03*
X78892500Y-126200000D03*
D13*
X70002500Y-123660000D03*
X76352500Y-121120000D03*
%TD*%
D11*
%TO.C,ST-3_1*%
X211925000Y-117945000D03*
X173825000Y-117945000D03*
D14*
X173825000Y-133185000D03*
X211925000Y-133185000D03*
%TD*%
D12*
%TO.C,MX4-4_0*%
X169380000Y-126200000D03*
D11*
X164300000Y-126200000D03*
D12*
X159220000Y-126200000D03*
D13*
X160490000Y-123660000D03*
X166840000Y-121120000D03*
%TD*%
D12*
%TO.C,MX2-11*%
X266376250Y-88100000D03*
D11*
X271456250Y-88100000D03*
D12*
X276536250Y-88100000D03*
D13*
X267646250Y-85560000D03*
X273996250Y-83020000D03*
%TD*%
D12*
%TO.C,MX3-10*%
X249707500Y-107150000D03*
D11*
X254787500Y-107150000D03*
D12*
X259867500Y-107150000D03*
D13*
X250977500Y-104610000D03*
X257327500Y-102070000D03*
%TD*%
D11*
%TO.C,MX2-1*%
X73812500Y-88100000D03*
D12*
X78892500Y-88100000D03*
X68732500Y-88100000D03*
D13*
X70002500Y-85560000D03*
X76352500Y-83020000D03*
%TD*%
D11*
%TO.C,MX1-4*%
X126200000Y-69050000D03*
D12*
X131280000Y-69050000D03*
X121120000Y-69050000D03*
D13*
X122390000Y-66510000D03*
X128740000Y-63970000D03*
%TD*%
D14*
%TO.C,ST-0_0*%
X221450000Y-133185000D03*
X107150000Y-133185000D03*
D11*
X221450000Y-117945000D03*
X107150000Y-117945000D03*
%TD*%
D12*
%TO.C,MX4-3_4*%
X113976250Y-126200000D03*
D11*
X119056250Y-126200000D03*
D12*
X124136250Y-126200000D03*
D13*
X115246250Y-123660000D03*
X121596250Y-121120000D03*
%TD*%
D12*
%TO.C,MX3-9*%
X240817500Y-107150000D03*
X230657500Y-107150000D03*
D11*
X235737500Y-107150000D03*
D13*
X231927500Y-104610000D03*
X238277500Y-102070000D03*
%TD*%
D11*
%TO.C,MX4-2_2*%
X95243750Y-126200000D03*
D12*
X100323750Y-126200000D03*
X90163750Y-126200000D03*
D13*
X91433750Y-123660000D03*
X97783750Y-121120000D03*
%TD*%
D12*
%TO.C,MX1-13*%
X307492500Y-64287500D03*
D11*
X302412500Y-64287500D03*
D12*
X297332500Y-64287500D03*
D13*
X298602500Y-61747500D03*
X304952500Y-59207500D03*
%TD*%
D12*
%TO.C,MX3-11*%
X281298750Y-107150000D03*
D11*
X276218750Y-107150000D03*
D12*
X271138750Y-107150000D03*
D13*
X272408750Y-104610000D03*
X278758750Y-102070000D03*
%TD*%
D11*
%TO.C,MX2-8*%
X207162500Y-88100000D03*
D12*
X202082500Y-88100000D03*
X212242500Y-88100000D03*
D13*
X203352500Y-85560000D03*
X209702500Y-83020000D03*
%TD*%
D12*
%TO.C,MX2-5*%
X144932500Y-88100000D03*
X155092500Y-88100000D03*
D11*
X150012500Y-88100000D03*
D13*
X146202500Y-85560000D03*
X152552500Y-83020000D03*
%TD*%
D12*
%TO.C,MX2-3*%
X106832500Y-88100000D03*
X116992500Y-88100000D03*
D11*
X111912500Y-88100000D03*
D13*
X108102500Y-85560000D03*
X114452500Y-83020000D03*
%TD*%
D12*
%TO.C,MX3-8*%
X221767500Y-107150000D03*
D11*
X216687500Y-107150000D03*
D12*
X211607500Y-107150000D03*
D13*
X212877500Y-104610000D03*
X219227500Y-102070000D03*
%TD*%
D12*
%TO.C,MX1-11*%
X264630000Y-69050000D03*
D11*
X259550000Y-69050000D03*
D12*
X254470000Y-69050000D03*
D13*
X255740000Y-66510000D03*
X262090000Y-63970000D03*
%TD*%
D12*
%TO.C,MX4-14*%
X326542500Y-126200000D03*
D11*
X321462500Y-126200000D03*
D12*
X316382500Y-126200000D03*
D13*
X317652500Y-123660000D03*
X324002500Y-121120000D03*
%TD*%
D12*
%TO.C,MX1-1*%
X63970000Y-69050000D03*
D11*
X69050000Y-69050000D03*
D12*
X74130000Y-69050000D03*
D13*
X65240000Y-66510000D03*
X71590000Y-63970000D03*
%TD*%
D12*
%TO.C,MX3-4*%
X145567500Y-107150000D03*
D11*
X140487500Y-107150000D03*
D12*
X135407500Y-107150000D03*
D13*
X136677500Y-104610000D03*
X143027500Y-102070000D03*
%TD*%
D12*
%TO.C,MX3-5*%
X164617500Y-107150000D03*
D11*
X159537500Y-107150000D03*
D12*
X154457500Y-107150000D03*
D13*
X155727500Y-104610000D03*
X162077500Y-102070000D03*
%TD*%
D11*
%TO.C,MX0-13*%
X302412500Y-45237500D03*
D12*
X307492500Y-45237500D03*
X297332500Y-45237500D03*
D13*
X298602500Y-42697500D03*
X304952500Y-40157500D03*
%TD*%
D11*
%TO.C,MX4-9_2*%
X233356250Y-126200000D03*
D12*
X228276250Y-126200000D03*
X238436250Y-126200000D03*
D13*
X229546250Y-123660000D03*
X235896250Y-121120000D03*
%TD*%
D12*
%TO.C,MX4-4_3*%
X130645000Y-126200000D03*
D11*
X135725000Y-126200000D03*
D12*
X140805000Y-126200000D03*
D13*
X131915000Y-123660000D03*
X138265000Y-121120000D03*
%TD*%
D12*
%TO.C,MX1-A12*%
X283680000Y-69050000D03*
X273520000Y-69050000D03*
D11*
X278600000Y-69050000D03*
D13*
X274790000Y-66510000D03*
X281140000Y-63970000D03*
%TD*%
D11*
%TO.C,ST-1_0*%
X97625000Y-117945000D03*
D14*
X230975000Y-133185000D03*
X97625000Y-133185000D03*
D11*
X230975000Y-117945000D03*
%TD*%
D12*
%TO.C,MX1-2*%
X83020000Y-69050000D03*
D11*
X88100000Y-69050000D03*
D12*
X93180000Y-69050000D03*
D13*
X84290000Y-66510000D03*
X90640000Y-63970000D03*
%TD*%
D11*
%TO.C,MX1-10*%
X240500000Y-69050000D03*
D12*
X235420000Y-69050000D03*
X245580000Y-69050000D03*
D13*
X236690000Y-66510000D03*
X243040000Y-63970000D03*
%TD*%
D11*
%TO.C,MX4-2_0*%
X88100000Y-126200000D03*
D12*
X83020000Y-126200000D03*
X93180000Y-126200000D03*
D13*
X84290000Y-123660000D03*
X90640000Y-121120000D03*
%TD*%
D12*
%TO.C,MX1-3*%
X102070000Y-69050000D03*
D11*
X107150000Y-69050000D03*
D12*
X112230000Y-69050000D03*
D13*
X103340000Y-66510000D03*
X109690000Y-63970000D03*
%TD*%
D12*
%TO.C,MX4-13*%
X297332500Y-126200000D03*
D11*
X302412500Y-126200000D03*
D12*
X307492500Y-126200000D03*
D13*
X298602500Y-123660000D03*
X304952500Y-121120000D03*
%TD*%
D12*
%TO.C,MX1-5*%
X140170000Y-69050000D03*
D11*
X145250000Y-69050000D03*
D12*
X150330000Y-69050000D03*
D13*
X141440000Y-66510000D03*
X147790000Y-63970000D03*
%TD*%
D12*
%TO.C,MX2-6*%
X163982500Y-88100000D03*
D11*
X169062500Y-88100000D03*
D12*
X174142500Y-88100000D03*
D13*
X165252500Y-85560000D03*
X171602500Y-83020000D03*
%TD*%
D12*
%TO.C,MX4-11_2*%
X271138750Y-126200000D03*
X281298750Y-126200000D03*
D11*
X276218750Y-126200000D03*
D13*
X272408750Y-123660000D03*
X278758750Y-121120000D03*
%TD*%
D15*
%TO.C,RE2*%
X328962500Y-57262500D03*
X328962500Y-52262500D03*
X328962500Y-54762500D03*
X314462500Y-52262500D03*
X314462500Y-57262500D03*
%TD*%
D12*
%TO.C,MX4-8_4*%
X214623750Y-126200000D03*
D11*
X209543750Y-126200000D03*
D12*
X204463750Y-126200000D03*
D13*
X205733750Y-123660000D03*
X212083750Y-121120000D03*
%TD*%
D12*
%TO.C,MX2-7*%
X193192500Y-88100000D03*
D11*
X188112500Y-88100000D03*
D12*
X183032500Y-88100000D03*
D13*
X184302500Y-85560000D03*
X190652500Y-83020000D03*
%TD*%
D12*
%TO.C,MX2-9*%
X231292500Y-88100000D03*
D11*
X226212500Y-88100000D03*
D12*
X221132500Y-88100000D03*
D13*
X222402500Y-85560000D03*
X228752500Y-83020000D03*
%TD*%
D11*
%TO.C,MX4-11_0*%
X278600000Y-126200000D03*
D12*
X283680000Y-126200000D03*
X273520000Y-126200000D03*
D13*
X274790000Y-123660000D03*
X281140000Y-121120000D03*
%TD*%
D12*
%TO.C,MX4-1_0*%
X63970000Y-126200000D03*
X74130000Y-126200000D03*
D11*
X69050000Y-126200000D03*
D13*
X65240000Y-123660000D03*
X71590000Y-121120000D03*
%TD*%
D12*
%TO.C,MX4-10_2*%
X249707500Y-126200000D03*
D11*
X254787500Y-126200000D03*
D12*
X259867500Y-126200000D03*
D13*
X250977500Y-123660000D03*
X257327500Y-121120000D03*
%TD*%
D11*
%TO.C,MX0-5*%
X145250000Y-50000000D03*
D12*
X150330000Y-50000000D03*
X140170000Y-50000000D03*
D13*
X141440000Y-47460000D03*
X147790000Y-44920000D03*
%TD*%
D11*
%TO.C,MX4-2_1*%
X83337500Y-126200000D03*
D12*
X78257500Y-126200000D03*
X88417500Y-126200000D03*
D13*
X79527500Y-123660000D03*
X85877500Y-121120000D03*
%TD*%
D12*
%TO.C,MX4-11_1*%
X268757500Y-126200000D03*
D11*
X273837500Y-126200000D03*
D12*
X278917500Y-126200000D03*
D13*
X270027500Y-123660000D03*
X276377500Y-121120000D03*
%TD*%
D12*
%TO.C,MX0-1*%
X74130000Y-50000000D03*
D11*
X69050000Y-50000000D03*
D12*
X63970000Y-50000000D03*
D13*
X65240000Y-47460000D03*
X71590000Y-44920000D03*
%TD*%
D12*
%TO.C,MX3-1*%
X88417500Y-107150000D03*
X78257500Y-107150000D03*
D11*
X83337500Y-107150000D03*
D13*
X79527500Y-104610000D03*
X85877500Y-102070000D03*
%TD*%
D12*
%TO.C,MX3-7*%
X202717500Y-107150000D03*
D11*
X197637500Y-107150000D03*
D12*
X192557500Y-107150000D03*
D13*
X193827500Y-104610000D03*
X200177500Y-102070000D03*
%TD*%
D12*
%TO.C,MX0-6*%
X159220000Y-50000000D03*
X169380000Y-50000000D03*
D11*
X164300000Y-50000000D03*
D13*
X160490000Y-47460000D03*
X166840000Y-44920000D03*
%TD*%
D11*
%TO.C,MX4-9_0*%
X240500000Y-126200000D03*
D12*
X245580000Y-126200000D03*
X235420000Y-126200000D03*
D13*
X236690000Y-123660000D03*
X243040000Y-121120000D03*
%TD*%
D11*
%TO.C,MX4-0_0*%
X50000000Y-126200000D03*
D12*
X44920000Y-126200000D03*
X55080000Y-126200000D03*
D13*
X46190000Y-123660000D03*
X52540000Y-121120000D03*
%TD*%
D15*
%TO.C,RE1*%
X338012500Y-52737500D03*
X343012500Y-52737500D03*
X340512500Y-52737500D03*
X343012500Y-38237500D03*
X338012500Y-38237500D03*
%TD*%
D12*
%TO.C,MX2-2*%
X87782500Y-88100000D03*
D11*
X92862500Y-88100000D03*
D12*
X97942500Y-88100000D03*
D13*
X89052500Y-85560000D03*
X95402500Y-83020000D03*
%TD*%
D11*
%TO.C,MX0-12*%
X278600000Y-45237500D03*
D12*
X273520000Y-45237500D03*
X283680000Y-45237500D03*
D13*
X274790000Y-42697500D03*
X281140000Y-40157500D03*
%TD*%
D12*
%TO.C,MX1-9*%
X226530000Y-69050000D03*
D11*
X221450000Y-69050000D03*
D12*
X216370000Y-69050000D03*
D13*
X217640000Y-66510000D03*
X223990000Y-63970000D03*
%TD*%
D12*
%TO.C,MX2-4*%
X136042500Y-88100000D03*
X125882500Y-88100000D03*
D11*
X130962500Y-88100000D03*
D13*
X127152500Y-85560000D03*
X133502500Y-83020000D03*
%TD*%
D12*
%TO.C,MX4-15*%
X345592500Y-126200000D03*
D11*
X340512500Y-126200000D03*
D12*
X335432500Y-126200000D03*
D13*
X336702500Y-123660000D03*
X343052500Y-121120000D03*
%TD*%
D12*
%TO.C,MX1-0*%
X44920000Y-69050000D03*
D11*
X50000000Y-69050000D03*
D12*
X55080000Y-69050000D03*
D13*
X46190000Y-66510000D03*
X52540000Y-63970000D03*
%TD*%
D11*
%TO.C,MX2-0*%
X52381250Y-88100000D03*
D12*
X47301250Y-88100000D03*
X57461250Y-88100000D03*
D13*
X48571250Y-85560000D03*
X54921250Y-83020000D03*
%TD*%
D12*
%TO.C,MX3-0*%
X62223750Y-107150000D03*
D11*
X57143750Y-107150000D03*
D12*
X52063750Y-107150000D03*
D13*
X53333750Y-104610000D03*
X59683750Y-102070000D03*
%TD*%
D12*
%TO.C,MX3-6*%
X173507500Y-107150000D03*
X183667500Y-107150000D03*
D11*
X178587500Y-107150000D03*
D13*
X174777500Y-104610000D03*
X181127500Y-102070000D03*
%TD*%
D12*
%TO.C,MX4-7_3*%
X197955000Y-126200000D03*
X187795000Y-126200000D03*
D11*
X192875000Y-126200000D03*
D13*
X189065000Y-123660000D03*
X195415000Y-121120000D03*
%TD*%
D11*
%TO.C,MX0-0*%
X50000000Y-50000000D03*
D12*
X55080000Y-50000000D03*
X44920000Y-50000000D03*
D13*
X46190000Y-47460000D03*
X52540000Y-44920000D03*
%TD*%
D12*
%TO.C,MX0-11*%
X264630000Y-45237500D03*
X254470000Y-45237500D03*
D11*
X259550000Y-45237500D03*
D13*
X255740000Y-42697500D03*
X262090000Y-40157500D03*
%TD*%
D11*
%TO.C,MX0-4*%
X126200000Y-50000000D03*
D12*
X121120000Y-50000000D03*
X131280000Y-50000000D03*
D13*
X122390000Y-47460000D03*
X128740000Y-44920000D03*
%TD*%
D16*
%TO.C,C17*%
X308502500Y-89425000D03*
X309462500Y-89425000D03*
%TD*%
D17*
%TO.C,D57*%
X65950000Y-129500000D03*
X65950000Y-126200000D03*
%TD*%
%TO.C,D41*%
X248362500Y-91400000D03*
X248362500Y-88100000D03*
%TD*%
D18*
%TO.C,R4*%
X300162500Y-101859375D03*
X300162500Y-100839375D03*
%TD*%
D19*
%TO.C,C11*%
X296322500Y-87425000D03*
X295362500Y-87425000D03*
%TD*%
D17*
%TO.C,D46*%
X124537500Y-110450000D03*
X124537500Y-107150000D03*
%TD*%
%TO.C,D34*%
X115012500Y-91400000D03*
X115012500Y-88100000D03*
%TD*%
%TO.C,D3*%
X91200000Y-53300000D03*
X91200000Y-50000000D03*
%TD*%
D20*
%TO.C,R2*%
X295789466Y-82223808D03*
X296956192Y-83390534D03*
%TD*%
D16*
%TO.C,C19*%
X308502500Y-93862500D03*
X309462500Y-93862500D03*
%TD*%
D21*
%TO.C,R9*%
X295842500Y-101877500D03*
X295842500Y-102897500D03*
%TD*%
D22*
%TO.C,Y1*%
X301562500Y-103487500D03*
X301562500Y-101287500D03*
X303262500Y-101287500D03*
X303262500Y-103487500D03*
%TD*%
D19*
%TO.C,C7*%
X296322500Y-86425000D03*
X295362500Y-86425000D03*
%TD*%
D17*
%TO.C,D12*%
X305512500Y-48537500D03*
X305512500Y-45237500D03*
%TD*%
%TO.C,D5*%
X129300000Y-53300000D03*
X129300000Y-50000000D03*
%TD*%
%TO.C,D48*%
X162637500Y-110450000D03*
X162637500Y-107150000D03*
%TD*%
D23*
%TO.C,C2*%
X300162500Y-103829375D03*
X300162500Y-102869375D03*
%TD*%
D17*
%TO.C,D65*%
X266693750Y-129500000D03*
X266693750Y-126200000D03*
%TD*%
%TO.C,D26*%
X256450000Y-72350000D03*
X256450000Y-69050000D03*
%TD*%
%TO.C,D1*%
X53100000Y-53300000D03*
X53100000Y-50000000D03*
%TD*%
%TO.C,D39*%
X210262500Y-91400000D03*
X210262500Y-88100000D03*
%TD*%
%TO.C,D49*%
X181687500Y-110450000D03*
X181687500Y-107150000D03*
%TD*%
%TO.C,D10*%
X256450000Y-48537500D03*
X256450000Y-45237500D03*
%TD*%
D23*
%TO.C,C8*%
X302912500Y-83817500D03*
X302912500Y-82857500D03*
%TD*%
D17*
%TO.C,D43*%
X60243750Y-110450000D03*
X60243750Y-107150000D03*
%TD*%
%TO.C,D16*%
X72150000Y-72350000D03*
X72150000Y-69050000D03*
%TD*%
%TO.C,D61*%
X195975000Y-129500000D03*
X195975000Y-126200000D03*
%TD*%
D24*
%TO.C,C20*%
X296842500Y-101907500D03*
X296842500Y-102867500D03*
%TD*%
D17*
%TO.C,D54*%
X279318750Y-110450000D03*
X279318750Y-107150000D03*
%TD*%
%TO.C,D58*%
X98343750Y-129500000D03*
X98343750Y-126200000D03*
%TD*%
D25*
%TO.C,U4*%
X201276250Y-44287500D03*
X201276250Y-46187500D03*
X199401250Y-45237500D03*
%TD*%
D17*
%TO.C,D33*%
X95962500Y-91400000D03*
X95962500Y-88100000D03*
%TD*%
%TO.C,D7*%
X167400000Y-53300000D03*
X167400000Y-50000000D03*
%TD*%
D20*
%TO.C,R3*%
X294728807Y-83284467D03*
X295895533Y-84451193D03*
%TD*%
D17*
%TO.C,D11*%
X281700000Y-48537500D03*
X281700000Y-45237500D03*
%TD*%
D26*
%TO.C,F1*%
X200338750Y-41557500D03*
X200338750Y-38757500D03*
%TD*%
D17*
%TO.C,D47*%
X143587500Y-110450000D03*
X143587500Y-107150000D03*
%TD*%
%TO.C,D22*%
X186450000Y-72350000D03*
X186450000Y-69050000D03*
%TD*%
%TO.C,D30*%
X343612500Y-67587500D03*
X343612500Y-64287500D03*
%TD*%
%TO.C,D37*%
X172162500Y-91400000D03*
X172162500Y-88100000D03*
%TD*%
%TO.C,D42*%
X274556250Y-91400000D03*
X274556250Y-88100000D03*
%TD*%
D16*
%TO.C,C10*%
X199858750Y-48487500D03*
X200818750Y-48487500D03*
%TD*%
D17*
%TO.C,D9*%
X243600000Y-48537500D03*
X243600000Y-45237500D03*
%TD*%
D24*
%TO.C,C9*%
X294842500Y-101907500D03*
X294842500Y-102867500D03*
%TD*%
D17*
%TO.C,D24*%
X224550000Y-72350000D03*
X224550000Y-69050000D03*
%TD*%
D27*
%TO.C,U3*%
X325062500Y-81432500D03*
X325062500Y-82702500D03*
X325062500Y-83972500D03*
X325062500Y-85242500D03*
X317862500Y-85242500D03*
X317862500Y-83972500D03*
X317862500Y-82702500D03*
X317862500Y-81432500D03*
%TD*%
D17*
%TO.C,D4*%
X110250000Y-53300000D03*
X110250000Y-50000000D03*
%TD*%
D23*
%TO.C,C13*%
X301912500Y-83817500D03*
X301912500Y-82857500D03*
%TD*%
D24*
%TO.C,C4*%
X320462500Y-78506000D03*
X320462500Y-79466000D03*
%TD*%
D21*
%TO.C,R7*%
X200818750Y-31417500D03*
X200818750Y-32437500D03*
%TD*%
%TO.C,R8*%
X322462500Y-78476000D03*
X322462500Y-79496000D03*
%TD*%
D28*
%TO.C,USB1*%
X198138750Y-34612500D03*
X192358750Y-34612500D03*
D29*
X191998750Y-36057500D03*
X192798750Y-36057500D03*
D30*
X193998750Y-36057500D03*
X194998750Y-36057500D03*
X195498750Y-36057500D03*
X196498750Y-36057500D03*
D29*
X197698750Y-36057500D03*
X198498750Y-36057500D03*
X198498750Y-36057500D03*
X197698750Y-36057500D03*
D30*
X196998750Y-36057500D03*
X195998750Y-36057500D03*
X194498750Y-36057500D03*
X193498750Y-36057500D03*
D29*
X192798750Y-36057500D03*
X191998750Y-36057500D03*
D31*
X199568750Y-30962500D03*
D32*
X199568750Y-35142500D03*
X190928750Y-35142500D03*
D31*
X190928750Y-30962500D03*
%TD*%
D17*
%TO.C,D25*%
X243600000Y-72350000D03*
X243600000Y-69050000D03*
%TD*%
%TO.C,D18*%
X110250000Y-72350000D03*
X110250000Y-69050000D03*
%TD*%
%TO.C,D55*%
X324562500Y-110450000D03*
X324562500Y-107150000D03*
%TD*%
%TO.C,D40*%
X229312500Y-91400000D03*
X229312500Y-88100000D03*
%TD*%
D24*
%TO.C,C3*%
X189678750Y-31447500D03*
X189678750Y-32407500D03*
%TD*%
D23*
%TO.C,C14*%
X303912500Y-83817500D03*
X303912500Y-82857500D03*
%TD*%
D17*
%TO.C,D66*%
X305512500Y-129500000D03*
X305512500Y-126200000D03*
%TD*%
%TO.C,D52*%
X238837500Y-110450000D03*
X238837500Y-107150000D03*
%TD*%
%TO.C,D13*%
X324562500Y-48537500D03*
X324562500Y-45237500D03*
%TD*%
%TO.C,D8*%
X224550000Y-48537500D03*
X224550000Y-45237500D03*
%TD*%
%TO.C,D17*%
X91200000Y-72350000D03*
X91200000Y-69050000D03*
%TD*%
%TO.C,D50*%
X200737500Y-110450000D03*
X200737500Y-107150000D03*
%TD*%
%TO.C,D59*%
X122156250Y-129500000D03*
X122156250Y-126200000D03*
%TD*%
%TO.C,D68*%
X343612500Y-129500000D03*
X343612500Y-126200000D03*
%TD*%
%TO.C,D28*%
X305512500Y-67587500D03*
X305512500Y-64287500D03*
%TD*%
%TO.C,D31*%
X55481250Y-91400000D03*
X55481250Y-88100000D03*
%TD*%
%TO.C,D14*%
X343612500Y-48537500D03*
X343612500Y-45237500D03*
%TD*%
D23*
%TO.C,C1*%
X304662500Y-102867500D03*
X304662500Y-101907500D03*
%TD*%
D33*
%TO.C,U1*%
X305850000Y-90262500D03*
X305850000Y-90662500D03*
X305850000Y-91062500D03*
X305850000Y-91462500D03*
X305850000Y-91862500D03*
X305850000Y-92262500D03*
X305850000Y-92662500D03*
X305850000Y-93062500D03*
X305850000Y-93462500D03*
X305850000Y-93862500D03*
X305850000Y-94262500D03*
X305850000Y-94662500D03*
X305850000Y-95062500D03*
X305850000Y-95462500D03*
D34*
X305012500Y-96300000D03*
X304612500Y-96300000D03*
X304212500Y-96300000D03*
X303812500Y-96300000D03*
X303412500Y-96300000D03*
X303012500Y-96300000D03*
X302612500Y-96300000D03*
X302212500Y-96300000D03*
X301812500Y-96300000D03*
X301412500Y-96300000D03*
X301012500Y-96300000D03*
X300612500Y-96300000D03*
X300212500Y-96300000D03*
X299812500Y-96300000D03*
D33*
X298975000Y-95462500D03*
X298975000Y-95062500D03*
X298975000Y-94662500D03*
X298975000Y-94262500D03*
X298975000Y-93862500D03*
X298975000Y-93462500D03*
X298975000Y-93062500D03*
X298975000Y-92662500D03*
X298975000Y-92262500D03*
X298975000Y-91862500D03*
X298975000Y-91462500D03*
X298975000Y-91062500D03*
X298975000Y-90662500D03*
X298975000Y-90262500D03*
D34*
X299812500Y-89425000D03*
X300212500Y-89425000D03*
X300612500Y-89425000D03*
X301012500Y-89425000D03*
X301412500Y-89425000D03*
X301812500Y-89425000D03*
X302212500Y-89425000D03*
X302612500Y-89425000D03*
X303012500Y-89425000D03*
X303412500Y-89425000D03*
X303812500Y-89425000D03*
X304212500Y-89425000D03*
X304612500Y-89425000D03*
X305012500Y-89425000D03*
D35*
X302412500Y-92862500D03*
%TD*%
D16*
%TO.C,C6*%
X199858750Y-47487500D03*
X200818750Y-47487500D03*
%TD*%
D17*
%TO.C,D53*%
X257887500Y-110450000D03*
X257887500Y-107150000D03*
%TD*%
%TO.C,D35*%
X134062500Y-91400000D03*
X134062500Y-88100000D03*
%TD*%
D18*
%TO.C,R6*%
X200818750Y-34437500D03*
X200818750Y-33417500D03*
%TD*%
D17*
%TO.C,D36*%
X153112500Y-91400000D03*
X153112500Y-88100000D03*
%TD*%
%TO.C,D6*%
X148350000Y-53300000D03*
X148350000Y-50000000D03*
%TD*%
%TO.C,D45*%
X105487500Y-110450000D03*
X105487500Y-107150000D03*
%TD*%
D19*
%TO.C,C16*%
X296322500Y-89425000D03*
X295362500Y-89425000D03*
%TD*%
D17*
%TO.C,D2*%
X72150000Y-53300000D03*
X72150000Y-50000000D03*
%TD*%
D36*
%TO.C,Reset1*%
X325062500Y-76494500D03*
X317862500Y-76494500D03*
X317862500Y-72794500D03*
X325062500Y-72794500D03*
%TD*%
D17*
%TO.C,D19*%
X129300000Y-72350000D03*
X129300000Y-69050000D03*
%TD*%
%TO.C,D60*%
X167081950Y-129500000D03*
X167081950Y-126200000D03*
%TD*%
%TO.C,D51*%
X219787500Y-110450000D03*
X219787500Y-107150000D03*
%TD*%
%TO.C,D38*%
X191212500Y-91400000D03*
X191212500Y-88100000D03*
%TD*%
D18*
%TO.C,R5*%
X189678750Y-34437500D03*
X189678750Y-33417500D03*
%TD*%
D16*
%TO.C,C5*%
X199858750Y-42987500D03*
X200818750Y-42987500D03*
%TD*%
D19*
%TO.C,C15*%
X296322500Y-88425000D03*
X295362500Y-88425000D03*
%TD*%
D17*
%TO.C,D27*%
X281700000Y-72350000D03*
X281700000Y-69050000D03*
%TD*%
%TO.C,D32*%
X76912500Y-91400000D03*
X76912500Y-88100000D03*
%TD*%
%TO.C,D67*%
X324562500Y-129500000D03*
X324562500Y-126200000D03*
%TD*%
%TO.C,D23*%
X205500000Y-72350000D03*
X205500000Y-69050000D03*
%TD*%
%TO.C,D56*%
X61906250Y-129500000D03*
X61906250Y-126200000D03*
%TD*%
%TO.C,D20*%
X148350000Y-72350000D03*
X148350000Y-69050000D03*
%TD*%
D37*
%TO.C,U2*%
X194073750Y-41107500D03*
X194073750Y-40157500D03*
X194073750Y-39207500D03*
X196423750Y-39207500D03*
X196423750Y-40157500D03*
X196423750Y-41107500D03*
%TD*%
D17*
%TO.C,D62*%
X212643750Y-129500000D03*
X212643750Y-126200000D03*
%TD*%
%TO.C,D15*%
X53100000Y-72350000D03*
X53100000Y-69050000D03*
%TD*%
D19*
%TO.C,C18*%
X296322500Y-93862500D03*
X295362500Y-93862500D03*
%TD*%
D17*
%TO.C,D44*%
X86437500Y-110450000D03*
X86437500Y-107150000D03*
%TD*%
%TO.C,D63*%
X248044450Y-129500000D03*
X248044450Y-126200000D03*
%TD*%
D23*
%TO.C,C12*%
X300912500Y-83817500D03*
X300912500Y-82857500D03*
%TD*%
D17*
%TO.C,D29*%
X324562500Y-67587500D03*
X324562500Y-64287500D03*
%TD*%
%TO.C,D64*%
X262650000Y-129500000D03*
X262650000Y-126200000D03*
%TD*%
%TO.C,D21*%
X167400000Y-72350000D03*
X167400000Y-69050000D03*
%TD*%
M02*
